<svg width="28" height="28" viewBox="0 0 28 28" fill="none" xmlns="http://www.w3.org/2000/svg">
<g clip-path="url(#clip0_303_1341)">
<path d="M27.9253 12.5175C27.7966 11.962 27.5481 11.4413 27.1974 10.9917C26.8414 10.5455 26.3923 10.1824 25.8814 9.92778C25.4785 9.72959 25.0413 9.61077 24.5935 9.57781C24.3653 7.12821 23.2795 4.83783 21.5276 3.11046C19.5328 1.11871 16.829 0 14.0099 0C11.1909 0 8.48711 1.11871 6.49226 3.11046C4.74036 4.83783 3.6546 7.12821 3.4264 9.57781C2.9786 9.61077 2.54134 9.72959 2.13845 9.92778C1.62503 10.1784 1.17511 10.5421 0.822507 10.9917C0.469118 11.4403 0.220373 11.9622 0.0944299 12.5192C-0.0315133 13.0762 -0.0314762 13.6543 0.0945387 14.2113L2.29244 23.2124C2.67074 24.5916 3.49273 25.8078 4.63138 26.6731C5.77004 27.5385 7.162 28.0048 8.59217 28H19.3857C20.8208 28.0015 22.2164 27.5308 23.3575 26.6605C24.4985 25.7903 25.3215 24.5688 25.6994 23.1844L27.8833 14.2113C28.0233 13.657 28.0373 13.0775 27.9253 12.5175ZM9.58613 21.5046C9.58613 21.7831 9.47551 22.0501 9.2786 22.247C9.0817 22.4439 8.81464 22.5545 8.53617 22.5545C8.25771 22.5545 7.99065 22.4439 7.79374 22.247C7.59684 22.0501 7.48622 21.7831 7.48622 21.5046V15.9892C7.48622 15.7107 7.59684 15.4437 7.79374 15.2468C7.99065 15.0499 8.25771 14.9393 8.53617 14.9393C8.81464 14.9393 9.0817 15.0499 9.2786 15.2468C9.47551 15.4437 9.58613 15.7107 9.58613 15.9892V21.5046ZM15.0599 21.5046C15.0599 21.6425 15.0327 21.779 14.98 21.9064C14.9272 22.0338 14.8499 22.1495 14.7524 22.247C14.6549 22.3445 14.5391 22.4218 14.4117 22.4746C14.2844 22.5274 14.1478 22.5545 14.0099 22.5545C13.8721 22.5545 13.7355 22.5274 13.6081 22.4746C13.4808 22.4218 13.365 22.3445 13.2675 22.247C13.17 22.1495 13.0927 22.0338 13.0399 21.9064C12.9871 21.779 12.96 21.6425 12.96 21.5046V15.9892C12.96 15.7107 13.0706 15.4437 13.2675 15.2468C13.4644 15.0499 13.7315 14.9393 14.0099 14.9393C14.2884 14.9393 14.5555 15.0499 14.7524 15.2468C14.9493 15.4437 15.0599 15.7107 15.0599 15.9892V21.5046ZM20.5337 21.5046C20.5337 21.7831 20.423 22.0501 20.2261 22.247C20.0292 22.4439 19.7622 22.5545 19.4837 22.5545C19.2052 22.5545 18.9382 22.4439 18.7413 22.247C18.5444 22.0501 18.4337 21.7831 18.4337 21.5046V15.9892C18.4337 15.7107 18.5444 15.4437 18.7413 15.2468C18.9382 15.0499 19.2052 14.9393 19.4837 14.9393C19.7622 14.9393 20.0292 15.0499 20.2261 15.2468C20.423 15.4437 20.5337 15.7107 20.5337 15.9892V21.5046ZM5.5403 9.54981C5.77054 7.67067 6.62892 5.92443 7.9762 4.59431C9.57911 2.99919 11.7485 2.10371 14.0099 2.10371C16.2714 2.10371 18.4408 2.99919 20.0437 4.59431C21.391 5.92443 22.2493 7.67067 22.4796 9.54981H5.5403Z" fill="#F56E00"/>
</g>
<defs>
<clipPath id="clip0_303_1341">
<rect width="28" height="28" fill="white"/>
</clipPath>
</defs>
</svg>
