<svg width="28" height="28" viewBox="0 0 28 28" fill="none" xmlns="http://www.w3.org/2000/svg">
<g clip-path="url(#clip0_303_1619)">
<path fill-rule="evenodd" clip-rule="evenodd" d="M14 27C15.7072 27 17.3977 26.6637 18.9749 26.0104C20.5521 25.3571 21.9852 24.3995 23.1924 23.1924C24.3995 21.9852 25.3571 20.5521 26.0104 18.9749C26.6637 17.3977 27 15.7072 27 14C27 12.2928 26.6637 10.6023 26.0104 9.02512C25.3571 7.44788 24.3995 6.01477 23.1924 4.80761C21.9852 3.60045 20.5521 2.64288 18.9749 1.98957C17.3977 1.33625 15.7072 1 14 1C10.5522 1 7.24558 2.36964 4.80761 4.80761C2.36964 7.24558 1 10.5522 1 14C1 17.4478 2.36964 20.7544 4.80761 23.1924C7.24558 25.6304 10.5522 27 14 27ZM13.6649 19.2578L20.8871 10.5911L18.6684 8.74222L12.4573 16.1941L9.24344 12.9788L7.201 15.0212L11.5343 19.3546L12.6523 20.4726L13.6649 19.2578Z" fill="#73D7BC"/>
</g>
<defs>
<clipPath id="clip0_303_1619">
<rect width="27.0416" height="27.0416" fill="white"/>
</clipPath>
</defs>
</svg>
