<svg width="28" height="28" viewBox="0 0 28 28" fill="none" xmlns="http://www.w3.org/2000/svg">
<path d="M14.6701 2.62094C14.2203 1.79302 12.8215 1.79302 12.3717 2.62094L0.671902 24.1416C0.566979 24.3346 0.51508 24.5506 0.521243 24.7689C0.527407 24.9871 0.591426 25.2001 0.70708 25.3871C0.822735 25.5742 0.986095 25.7289 1.18129 25.8363C1.37649 25.9437 1.59689 26.0001 1.82108 26H25.2207C25.4449 26.0005 25.6653 25.9443 25.8606 25.8371C26.0559 25.7299 26.2193 25.5752 26.3349 25.3881C26.4505 25.2011 26.5144 24.9881 26.5203 24.7698C26.5262 24.5516 26.4739 24.3356 26.3686 24.1429L14.6701 2.62094ZM14.8209 22.2022H12.2209V19.6704H14.8209V22.2022ZM12.2209 17.1385V10.8089H14.8209L14.8222 17.1385H12.2209Z" fill="#F56E00"/>
</svg>
