<svg width="28" height="28" viewBox="0 0 28 28" fill="none" xmlns="http://www.w3.org/2000/svg">
<path fill-rule="evenodd" clip-rule="evenodd" d="M25.1998 14.9082H2.7998C2.81797 19.478 2.9754 22.3269 3.12678 24.0326C3.28421 25.8013 4.60663 27.1449 6.37833 27.3205C7.92842 27.4737 10.3716 27.6238 13.9998 27.6238C17.628 27.6238 20.0706 27.4737 21.6213 27.3205C23.393 27.1449 24.7154 25.8013 24.8728 24.0326C25.0242 22.3263 25.1816 19.478 25.1998 14.9082ZM9.45853 18.844C9.45853 18.6031 9.36284 18.3721 9.1925 18.2018C9.02217 18.0315 8.79116 17.9358 8.55027 17.9358C8.30939 17.9358 8.07837 18.0315 7.90804 18.2018C7.73771 18.3721 7.64202 18.6031 7.64202 18.844V21.266C7.64202 21.5069 7.73771 21.7379 7.90804 21.9083C8.07837 22.0786 8.30939 22.1743 8.55027 22.1743C8.79116 22.1743 9.02217 22.0786 9.1925 21.9083C9.36284 21.7379 9.45853 21.5069 9.45853 21.266V18.844ZM24.8728 3.96801C25.0242 5.6731 25.1816 8.522 25.1998 13.0917H2.7998C2.81797 8.522 2.9754 5.6731 3.12678 3.9674C3.28421 2.19873 4.60663 0.855113 6.37833 0.679517C7.92781 0.526324 10.371 0.37616 13.9998 0.37616C17.6286 0.37616 20.0706 0.526324 21.6213 0.679517C23.393 0.855113 24.7154 2.19994 24.8728 3.96801ZM8.55027 5.82569C8.79116 5.82569 9.02217 5.92138 9.1925 6.09171C9.36284 6.26204 9.45853 6.49306 9.45853 6.73395V9.15596C9.45853 9.39684 9.36284 9.62786 9.1925 9.79819C9.02217 9.96852 8.79116 10.0642 8.55027 10.0642C8.30939 10.0642 8.07837 9.96852 7.90804 9.79819C7.73771 9.62786 7.64202 9.39684 7.64202 9.15596V6.73395C7.64202 6.49306 7.73771 6.26204 7.90804 6.09171C8.07837 5.92138 8.30939 5.82569 8.55027 5.82569Z" fill="#F56E00"/>
</svg>
