<svg width="28" height="28" viewBox="0 0 28 28" fill="none" xmlns="http://www.w3.org/2000/svg">
<path fill-rule="evenodd" clip-rule="evenodd" d="M25.2001 14.9082H2.80005C2.81821 19.478 2.97565 22.3269 3.12702 24.0326C3.28445 25.8013 4.60687 27.1449 6.37858 27.3205C7.92866 27.4737 10.3719 27.6238 14 27.6238C17.6282 27.6238 20.0708 27.4737 21.6215 27.3205C23.3932 27.1449 24.7156 25.8013 24.8731 24.0326C25.0245 22.3263 25.1819 19.478 25.2001 14.9082ZM9.45877 18.844C9.45877 18.6031 9.36308 18.3721 9.19275 18.2018C9.02242 18.0315 8.7914 17.9358 8.55052 17.9358C8.30963 17.9358 8.07861 18.0315 7.90828 18.2018C7.73795 18.3721 7.64226 18.6031 7.64226 18.844V21.266C7.64226 21.5069 7.73795 21.7379 7.90828 21.9083C8.07861 22.0786 8.30963 22.1743 8.55052 22.1743C8.7914 22.1743 9.02242 22.0786 9.19275 21.9083C9.36308 21.7379 9.45877 21.5069 9.45877 21.266V18.844ZM24.8731 3.96801C25.0245 5.6731 25.1819 8.522 25.2001 13.0917H2.80005C2.81821 8.522 2.97565 5.6731 3.12702 3.9674C3.28445 2.19873 4.60687 0.855113 6.37858 0.679517C7.92806 0.526324 10.3713 0.37616 14 0.37616C17.6288 0.37616 20.0708 0.526324 21.6215 0.679517C23.3932 0.855113 24.7156 2.19994 24.8731 3.96801ZM8.55052 5.82569C8.7914 5.82569 9.02242 5.92138 9.19275 6.09171C9.36308 6.26204 9.45877 6.49306 9.45877 6.73395V9.15596C9.45877 9.39684 9.36308 9.62786 9.19275 9.79819C9.02242 9.96852 8.7914 10.0642 8.55052 10.0642C8.30963 10.0642 8.07861 9.96852 7.90828 9.79819C7.73795 9.62786 7.64226 9.39684 7.64226 9.15596V6.73395C7.64226 6.49306 7.73795 6.26204 7.90828 6.09171C8.07861 5.92138 8.30963 5.82569 8.55052 5.82569Z" fill="#BFBFBF"/>
</svg>
