<svg width="19" height="19" viewBox="0 0 19 19" fill="none" xmlns="http://www.w3.org/2000/svg">
<path d="M16.1246 9.71291L17.3066 10.7656C17.5249 10.9477 17.6707 11.202 17.7177 11.4824C17.7647 11.7628 17.7098 12.0508 17.5629 12.2942L16.1377 14.7291C16.0271 14.9154 15.8692 15.0693 15.68 15.175C15.4886 15.2809 15.2737 15.3371 15.055 15.3384C14.9193 15.3393 14.7843 15.319 14.6549 15.2783L13.1421 14.7787C12.8771 14.9487 12.6016 15.1009 12.3157 15.2351L11.9979 16.769C11.9392 17.0511 11.7821 17.3033 11.5547 17.4804C11.3244 17.6606 11.039 17.7558 10.7466 17.7497H7.79547C7.50312 17.7558 7.21766 17.6606 6.98741 17.4804C6.76052 17.303 6.60391 17.051 6.54546 16.769L6.22641 15.2351C5.94424 15.0991 5.67048 14.9462 5.40658 14.7774L3.88851 15.2783C3.75907 15.319 3.62408 15.3393 3.4884 15.3384C3.27012 15.3369 3.0557 15.2807 2.8647 15.175C2.67568 15.0696 2.51781 14.9163 2.40706 14.7304L0.930831 12.2942C0.777361 12.0486 0.718721 11.7555 0.7659 11.4697C0.813079 11.184 0.962839 10.9253 1.18711 10.742L2.36783 9.25V8.78709L1.1858 7.73443C0.967525 7.55227 0.821678 7.29797 0.774668 7.01756C0.727658 6.73716 0.782591 6.44919 0.929523 6.20579L2.40575 3.77094C2.51632 3.58456 2.6742 3.43073 2.86339 3.32504C3.05439 3.21934 3.26881 3.16314 3.48709 3.16158C3.62155 3.1531 3.75652 3.16545 3.8872 3.19819L5.3752 3.72125C5.64107 3.55126 5.91652 3.39914 6.20157 3.26488L6.52061 1.73101C6.57907 1.44904 6.73568 1.19696 6.96256 1.01965C7.19282 0.839383 7.47828 0.744221 7.77063 0.750272H10.6969C10.9893 0.744221 11.2747 0.839383 11.505 1.01965C11.7338 1.1988 11.8907 1.45117 11.947 1.73101L12.266 3.26488C12.5493 3.40001 12.8226 3.55257 13.0858 3.72256L14.6052 3.22304C14.7738 3.16818 14.952 3.14892 15.1285 3.16647C15.3049 3.18403 15.4758 3.23802 15.6303 3.32504C15.8199 3.43226 15.9768 3.58657 16.088 3.76964L17.5629 6.20579C17.7184 6.4493 17.78 6.74109 17.7363 7.02671C17.6925 7.31233 17.5463 7.57225 17.3249 7.75797L16.1246 8.78055V9.71291Z" stroke="#302525" stroke-width="1.5"/>
<path d="M12.5183 9.24972C12.5183 10.1167 12.1739 10.9483 11.5609 11.5613C10.9479 12.1744 10.1164 12.5188 9.24947 12.5188C8.38251 12.5188 7.55106 12.1744 6.93802 11.5613C6.32499 10.9483 5.98059 10.1167 5.98059 9.24972C5.98059 8.38269 6.32499 7.55118 6.93802 6.9381C7.55106 6.32502 8.38251 5.98059 9.24947 5.98059C10.1164 5.98059 10.9479 6.32502 11.5609 6.9381C12.1739 7.55118 12.5183 8.38269 12.5183 9.24972Z" stroke="#302525" stroke-width="1.5"/>
</svg>
