<svg width="16" height="16" viewBox="0 0 16 16" fill="none" xmlns="http://www.w3.org/2000/svg">
<path d="M9.82302 2.5H9.84737C10.0089 2.5 10.1637 2.56415 10.2779 2.67833C10.3921 2.79252 10.4562 2.94739 10.4562 3.10887C10.4562 3.27036 10.3921 3.42523 10.2779 3.53941C10.1637 3.6536 10.0089 3.71775 9.84737 3.71775C8.79848 3.71775 8.00045 3.71775 7.36479 3.76889C6.7275 3.82004 6.32321 3.91746 6.03663 4.07008C5.44305 4.39179 4.96649 4.89307 4.67519 5.50215C4.52094 5.82201 4.4284 6.21656 4.3805 6.83193C4.33179 7.45217 4.33179 8.24289 4.33179 9.34374V9.43304L5.24104 8.52379C5.35646 8.41624 5.50912 8.35768 5.66686 8.36047C5.8246 8.36325 5.9751 8.42715 6.08666 8.53871C6.19822 8.65026 6.26212 8.80077 6.2649 8.95851C6.26768 9.11624 6.20913 9.26891 6.10158 9.38433L4.15319 11.3327C4.09485 11.391 4.02528 11.4369 3.94869 11.4675C3.87211 11.4981 3.79011 11.5128 3.70766 11.5107C3.62522 11.5087 3.54405 11.4899 3.46908 11.4555C3.39411 11.4212 3.3269 11.3719 3.27154 11.3108L1.50905 9.36241C1.40548 9.24198 1.35308 9.08585 1.36301 8.92733C1.37294 8.76881 1.44442 8.62044 1.56221 8.51388C1.68 8.40732 1.83476 8.35101 1.99348 8.35695C2.15221 8.3629 2.30232 8.43063 2.41181 8.54571L3.11404 9.32182V9.31776C3.11404 8.24858 3.11404 7.40996 3.16681 6.73695C3.22039 6.05176 3.3308 5.4851 3.58003 4.9704C3.98363 4.13039 4.64261 3.43958 5.46267 2.99684C5.97006 2.72488 6.57488 2.61041 7.26818 2.5552C7.95824 2.5 8.80335 2.5 9.82302 2.5ZM13.2019 4.4484C13.2845 4.45044 13.3658 4.46927 13.4409 4.50374C13.5159 4.53821 13.5832 4.58761 13.6386 4.64892L15.4011 6.59731C15.5047 6.71774 15.5571 6.87387 15.5471 7.03239C15.5372 7.19091 15.4657 7.33928 15.3479 7.44584C15.2302 7.5524 15.0754 7.60871 14.9167 7.60277C14.7579 7.59682 14.6078 7.52909 14.4984 7.41401L13.7961 6.6379V6.64196C13.7961 7.71114 13.7961 8.54977 13.7433 9.22277C13.6898 9.90796 13.5802 10.4746 13.3301 10.9893C12.9265 11.8293 12.2675 12.5201 11.4475 12.9629C10.9401 13.2348 10.3353 13.3493 9.64198 13.4045C8.95192 13.4597 8.1068 13.4597 7.08795 13.4597H7.0636C6.90212 13.4597 6.74725 13.3956 6.63306 13.2814C6.51888 13.1672 6.45473 13.0123 6.45473 12.8508C6.45473 12.6894 6.51888 12.5345 6.63306 12.4203C6.74725 12.3061 6.90212 12.242 7.0636 12.242C8.11167 12.242 8.9097 12.242 9.54537 12.1908C10.1827 12.1397 10.5869 12.0423 10.8735 11.8888C11.467 11.5673 11.9435 11.0663 12.235 10.4576C12.3892 10.1377 12.4818 9.74316 12.5297 9.12779C12.5784 8.50755 12.5784 7.71683 12.5784 6.61598V6.52668L11.6691 7.43593C11.5537 7.54349 11.401 7.60204 11.2433 7.59925C11.0856 7.59647 10.9351 7.53257 10.8235 7.42101C10.7119 7.30946 10.648 7.15896 10.6453 7.00122C10.6425 6.84348 10.701 6.69082 10.8086 6.57539L12.757 4.627C12.8152 4.56867 12.8846 4.52277 12.9611 4.49207C13.0376 4.46137 13.1195 4.44651 13.2019 4.4484Z" fill="#F56E00"/>
</svg>
