<svg width="347" height="347" viewBox="0 0 347 347" fill="none" xmlns="http://www.w3.org/2000/svg">
<rect width="347" height="347" rx="14" fill="#F56E00"/>
<path d="M73.6819 189.241C70.5841 184.849 65.9372 182 60.5987 181.456C55.2697 180.904 49.6859 182.701 45.2406 186.318C40.7953 189.935 37.9001 195.037 37.3568 200.366C36.804 205.704 38.6479 210.833 42.3181 214.759C46.0929 218.867 50.1614 222.866 54.2356 226.525C126.838 298.31 251.147 283.654 308.108 213.027C311.483 209.511 314.847 205.841 318.212 202C314.37 205.365 310.553 208.535 306.749 211.53C238.422 273.243 132.404 265.473 81.6173 199.585C78.7945 196.238 76.0543 192.693 73.6819 189.241Z" fill="white"/>
<path d="M289.785 154.445H312.117V188.687H280.257C255.767 188.687 245.495 177.893 245.495 156.678C245.495 135.464 255.767 124.67 280.257 124.67C291.646 124.67 300.132 125.638 309.139 127.275L307.651 147.523C299.686 146.704 291.646 145.885 283.681 145.885C276.238 145.885 271.548 149.235 271.548 156.678C271.548 164.122 276.238 167.472 283.681 167.472H289.785V154.445Z" fill="white"/>
<path d="M201.064 156.957H176.871V94.4293H216.398C234.337 94.4293 241.856 99.7889 241.856 110.285C241.856 116.537 238.878 121.078 232.849 123.981C240.441 126.736 244.982 132.542 244.982 139.39C244.982 151.3 238.134 156.957 216.398 156.957H204.041L201.808 138.72H213.644C218.705 138.72 220.79 137.529 220.79 134.998C220.79 132.467 218.705 131.276 213.644 131.276H201.064V156.957ZM201.064 118.25H213.271C217.291 118.25 219.152 117.059 219.152 114.9C219.152 112.741 217.291 111.55 213.271 111.55H201.064V118.25Z" fill="white"/>
<path d="M150.376 154.445H172.708V188.687H140.848C116.358 188.687 106.086 177.894 106.086 156.679C106.086 135.464 116.358 124.67 140.848 124.67C152.237 124.67 160.723 125.638 169.73 127.276L168.242 147.523C160.277 146.704 152.237 145.885 144.273 145.885C136.829 145.885 132.139 149.235 132.139 156.679C132.139 164.122 136.829 167.472 144.273 167.472H150.376V154.445Z" fill="white"/>
<path d="M61.981 156.865H37.7886V94.3364H77.3153C95.2549 94.3364 102.773 99.696 102.773 110.192C102.773 116.445 99.7957 120.985 93.7662 123.888C101.359 126.643 105.9 132.449 105.9 139.297C105.9 151.207 99.0513 156.865 77.3153 156.865H64.9585L62.7254 138.627H74.5611C79.6229 138.627 81.7072 137.436 81.7072 134.905C81.7072 132.374 79.6229 131.183 74.5611 131.183H61.981V156.865ZM61.981 118.157H74.1889C78.2086 118.157 80.0695 116.966 80.0695 114.807C80.0695 112.648 78.2086 111.457 74.1889 111.457H61.981V118.157Z" fill="white"/>
</svg>
