<svg width="314" height="183" viewBox="0 0 314 183" fill="none" xmlns="http://www.w3.org/2000/svg">
<rect width="314" height="183" rx="7" fill="#FFF4E9"/>
<mask id="mask0_563_10610" style="mask-type:alpha" maskUnits="userSpaceOnUse" x="0" y="0" width="314" height="183">
<rect width="314" height="183" rx="7" fill="#F5F5F5"/>
</mask>
<g mask="url(#mask0_563_10610)">
<g filter="url(#filter0_d_563_10610)">
<path d="M287.472 165.62C291.67 169.882 304.401 175.378 310.242 177.593L315.285 177.355C312.056 171.591 316.335 165.269 312.967 165.552C309.598 165.835 287.445 154.822 283.693 150.503L281.577 156.42C281.793 157.711 283.274 161.357 287.472 165.62Z" fill="url(#paint0_linear_563_10610)"/>
</g>
<g filter="url(#filter1_d_563_10610)">
<path d="M245.103 160.981C241.387 162.808 232.359 161.769 228.309 161.021L225.461 158.47C229.07 154.862 236.753 148.1 238.618 149.914C240.483 151.728 248.377 151.429 251.853 149.344L251.292 155.567C250.778 156.611 248.82 159.154 245.103 160.981Z" fill="url(#paint1_linear_563_10610)"/>
</g>
<g filter="url(#filter2_d_563_10610)">
<path d="M254.848 145.895L272.182 145.411L280.131 146.358C286.225 156.429 297.1 177.942 291.839 183.431C285.263 190.293 238.104 189.772 240.737 177.343C242.843 167.401 249.886 152.1 254.848 145.895Z" fill="url(#paint2_linear_563_10610)"/>
</g>
<g filter="url(#filter3_d_563_10610)">
<path d="M251.744 158.38L253.829 142.162H260.548L258.695 158.38C261.475 156.526 271.438 157.608 276.071 158.38L274.45 142.162L278.62 140.771L281.4 147.954L283.022 158.38C290.436 155.414 295.533 174.135 297.155 183.866L240.855 185.719C237.889 165.145 246.879 158.92 251.744 158.38Z" fill="#E7B082"/>
</g>
<g filter="url(#filter4_d_563_10610)">
<rect x="243.607" y="99.5195" width="65.3342" height="44.3339" rx="7.50672" transform="rotate(11.1763 243.607 99.5195)" fill="url(#paint3_linear_563_10610)"/>
</g>
<g filter="url(#filter5_d_563_10610)">
<path fill-rule="evenodd" clip-rule="evenodd" d="M259.378 88.3398L251.526 105.435C259.956 109.732 281.524 117.367 300.357 113.533L299.424 101.002C308.91 101.962 327.328 96.6174 320.306 79.6856C313.283 62.7538 293.519 55.1032 284.02 55.6025C280.424 55.7916 277.009 57.879 273.56 57.666C267.9 57.3167 261.957 54.9767 258.263 56.5653C252.317 59.1221 247.911 62.6886 247.911 62.6886C242.013 71.0208 236.05 87.8161 259.378 88.3398Z" fill="white"/>
</g>
<rect x="256.919" y="119.334" width="7.0001" height="14.0002" rx="3.50005" transform="rotate(10.9956 256.919 119.334)" fill="url(#paint4_linear_563_10610)"/>
<rect x="279.824" y="123.785" width="7.0001" height="14.0002" rx="3.50005" transform="rotate(10.9956 279.824 123.785)" fill="url(#paint5_linear_563_10610)"/>
<ellipse cx="257.871" cy="132.144" rx="2.33337" ry="1.16668" transform="rotate(16.7075 257.871 132.144)" fill="#E4E4E4"/>
<ellipse cx="280.797" cy="136.751" rx="2.33337" ry="1.16668" transform="rotate(13.3138 280.797 136.751)" fill="#E4E4E4"/>
<ellipse cx="244.957" cy="133.948" rx="23.3337" ry="14.0002" transform="rotate(17.5466 244.957 133.948)" fill="url(#paint6_radial_563_10610)" fill-opacity="0.32"/>
<ellipse cx="292.159" cy="144.189" rx="23.3337" ry="14.0002" transform="rotate(11.0923 292.159 144.189)" fill="url(#paint7_radial_563_10610)" fill-opacity="0.32"/>
<path d="M259.379 88.339C236.051 87.8151 242.014 71.0201 247.911 62.688L251.49 60.2607C256.37 57.7252 259.437 55.0675 253.064 61.8701C242.755 72.8742 257.625 78.4035 265.881 79.3825C270.232 93.4839 286.196 88.661 293.634 84.4869C297.658 96.5271 313.578 93.6482 321.035 90.7037C317.94 100.493 305.338 101.648 299.425 101.001C294.975 99.5943 292.107 97.0559 291.229 95.9626C273.849 98.2984 266.189 91.3081 264.531 87.521L259.379 88.339Z" fill="#F6F1EC"/>
<path d="M264.351 99.7004L268.278 91.1529L268.629 90.0405L293.045 94.0897C292.103 109.454 290.346 110.367 289.585 108.903C287.805 108.34 289.432 99.0655 290.469 94.4986L284.203 94.9648C280.028 111.265 277.425 109.952 276.645 107.258C275.755 106.977 278.347 98.0074 279.753 93.5578L273.84 92.9116C262.918 111.973 262.964 105.38 264.351 99.7004Z" fill="#F6F1EC" fill-opacity="0.63"/>
<path d="M252.931 158.126L254.75 143.392C254.878 142.353 255.863 141.642 256.89 141.847C257.787 142.027 258.407 142.846 258.333 143.757C257.773 150.632 256.902 161.795 257.073 161.624C257.225 161.472 257.804 161.101 258.22 160.845C258.381 160.746 258.527 160.626 258.677 160.511C261.48 158.374 272.408 159.873 277.675 160.925C277.688 160.928 277.7 160.929 277.712 160.929C277.826 160.929 277.915 160.83 277.903 160.717L276.457 146.882C276.382 146.156 277.04 145.569 277.752 145.728C278.143 145.814 278.665 145.765 278.873 146.106C279.815 147.654 281.284 154.562 282.209 159.48C282.36 160.287 283.592 160.929 284.412 160.929C289.083 160.756 293.31 175.368 295.171 184.162C295.393 185.209 294.841 186.259 293.863 186.693C293.589 186.815 293.294 186.882 292.994 186.891L245.401 188.238C244.722 188.257 244.068 187.977 243.613 187.472L242.755 186.518C242.424 186.15 242.217 185.674 242.174 185.18C240.668 167.881 246.252 161.837 250.579 160.524C251.729 160.175 252.784 159.319 252.931 158.126Z" stroke="white" stroke-opacity="0.26" stroke-width="1.39013" stroke-dasharray="2.32 2.32"/>
<g filter="url(#filter6_d_563_10610)">
<path d="M217.18 142.036C227.921 124.533 238.458 137.066 242.384 145.52C244.67 153.807 234.617 159.591 229.305 161.448C208.172 157.107 212.416 146.698 217.18 142.036Z" fill="url(#paint8_linear_563_10610)"/>
<rect width="13.0101" height="7.52955" rx="3.76477" transform="matrix(-0.186872 0.982384 0.966008 0.258511 236.065 131.471)" fill="#FFF7F1"/>
<rect width="16.455" height="7.2717" rx="3.63585" transform="matrix(0.398469 0.917182 0.905385 -0.424593 219.339 127.041)" fill="#FFF7F1"/>
<rect width="15.5867" height="7.2717" rx="3.63585" transform="matrix(0.595564 0.803308 0.785909 -0.618342 209.785 133.885)" fill="#FFF7F1"/>
<rect width="15.9953" height="7.2717" rx="3.63585" transform="matrix(0.677562 0.735466 0.715745 -0.698362 206.996 145.818)" fill="#FFF7F1"/>
</g>
</g>
<path d="M186.65 121.52L164.87 106.596C164.325 106.223 164 105.606 164 104.946V102.5C164 101.395 164.895 100.5 166 100.5H183.438C184.356 100.5 185.156 101.125 185.379 102.015L189.721 119.385C190.168 121.17 188.169 122.56 186.65 121.52Z" fill="white"/>
<rect x="38" y="50" width="169" height="60" rx="15" fill="white"/>
<path d="M63.8047 75.5518C63.8047 76.3574 63.6558 77.1143 63.3579 77.8223C63.0649 78.5254 62.6401 79.1406 62.0835 79.668C61.5269 80.1904 60.8628 80.5859 60.0913 80.8545L59.3882 79.7485C60.0571 79.519 60.6382 79.1919 61.1313 78.7671C61.6294 78.3374 62.0127 77.8467 62.2812 77.2949C62.5498 76.7383 62.6841 76.1572 62.6841 75.5518V74.5483H63.8047V75.5518ZM64.061 75.5444C64.061 76.0962 64.188 76.626 64.4419 77.1338C64.6958 77.6367 65.0571 78.0811 65.5259 78.4668C65.9995 78.8477 66.5635 79.1455 67.2178 79.3604L66.5586 80.4517C65.8066 80.2026 65.1597 79.8364 64.6177 79.353C64.0757 78.8696 63.6582 78.3008 63.3652 77.6465C63.0771 76.9922 62.9331 76.2915 62.9331 75.5444V74.5483H64.061V75.5444ZM66.9028 75.1855H59.791V74.0576H66.9028V75.1855ZM69.7959 80.9937H68.4116V73.1128H69.7959V80.9937ZM71.7075 77.5146H69.4077V76.3647H71.7075V77.5146ZM65.5552 81.3159C66.4536 81.3159 67.23 81.4111 67.8843 81.6016C68.5435 81.792 69.0464 82.0703 69.3931 82.4365C69.7397 82.8027 69.9131 83.2422 69.9131 83.7549C69.9131 84.2676 69.7397 84.707 69.3931 85.0732C69.0464 85.4443 68.5435 85.7275 67.8843 85.9229C67.23 86.123 66.4536 86.2231 65.5552 86.2231C64.6519 86.2231 63.8682 86.123 63.2041 85.9229C62.5449 85.7275 62.0371 85.4443 61.6807 85.0732C61.3291 84.707 61.1533 84.2676 61.1533 83.7549C61.1533 83.2422 61.3291 82.8027 61.6807 82.4365C62.0371 82.0703 62.5449 81.792 63.2041 81.6016C63.8682 81.4111 64.6519 81.3159 65.5552 81.3159ZM65.5552 82.4146C64.9351 82.4146 64.3979 82.4658 63.9438 82.5684C63.4897 82.6709 63.1431 82.8223 62.9038 83.0225C62.6694 83.2227 62.5522 83.4668 62.5522 83.7549C62.5522 84.0381 62.6694 84.2847 62.9038 84.4946C63.1431 84.6997 63.4873 84.856 63.9365 84.9634C64.3857 85.0708 64.9253 85.1245 65.5552 85.1245C66.1948 85.1245 66.7368 85.0708 67.1812 84.9634C67.6304 84.856 67.9722 84.6997 68.2065 84.4946C68.4409 84.2847 68.5581 84.0381 68.5581 83.7549C68.5581 83.4668 68.4409 83.2227 68.2065 83.0225C67.9722 82.8223 67.6279 82.6709 67.1738 82.5684C66.7246 82.4658 66.1851 82.4146 65.5552 82.4146ZM84.459 84.6118H72.4473V83.4692H84.459V84.6118ZM79.105 83.7915H77.7427V80.4077H79.105V83.7915ZM75.2158 76.2769H81.6611V74.0137H83.0308V80.7739H73.8169V74.0137H75.2158V76.2769ZM81.6611 79.646V77.3975H75.2158V79.646H81.6611ZM96.3242 86.2378H94.918V73.1128H96.3242V86.2378ZM92.4277 74.5264C92.4277 75.8643 92.2202 77.1021 91.8052 78.2397C91.395 79.3726 90.7358 80.4175 89.8276 81.3745C88.9194 82.3267 87.7378 83.1519 86.2827 83.8501L85.5356 82.7222C86.8003 82.1265 87.8379 81.4331 88.6484 80.6421C89.4639 79.8511 90.0669 78.9673 90.4575 77.9907C90.8481 77.0142 91.0435 75.9351 91.0435 74.7534V74.5264H92.4277ZM91.644 75.6396H86.1729V74.5264H91.644V75.6396ZM113.331 86.2378H111.991V73.1128H113.331V86.2378ZM112.474 79.4849H110.021V78.335H112.474V79.4849ZM110.445 85.5786H109.127V73.3838H110.445V85.5786ZM108.263 75.8594H102.162V74.7241H108.263V75.8594ZM101.891 81.9092C103.058 81.9092 104.222 81.8896 105.384 81.8506C106.546 81.8066 107.577 81.7236 108.475 81.6016L108.556 82.6196C107.638 82.7954 106.61 82.915 105.472 82.9785C104.334 83.042 103.197 83.0737 102.059 83.0737L101.891 81.9092ZM104.491 82.2388H103.209V75.4565H104.491V82.2388ZM107.223 82.2388H105.948V75.4565H107.223V82.2388ZM124.786 77.9028H122.091V76.7676H124.786V77.9028ZM125.943 82.854H124.552V73.1274H125.943V82.854ZM126.28 85.9814H117.389V84.8315H126.28V85.9814ZM118.795 85.5493H117.389V82.0117H118.795V85.5493ZM116.642 79.7266C117.999 79.7266 119.071 79.707 119.857 79.668C120.643 79.624 121.434 79.5312 122.23 79.3896L122.347 80.5176C121.527 80.6641 120.704 80.7617 119.879 80.8105C119.054 80.8594 117.975 80.8838 116.642 80.8838H115.66V79.7266H116.642ZM121.6 75.2734H117.044V79.9023H115.66V74.1382H121.6V75.2734ZM121.227 77.998H116.605V76.8994H121.227V77.998ZM143.624 81.1108H131.612V79.9976H143.624V81.1108ZM138.424 83.5278H137.047V80.5542H138.424V83.5278ZM142.291 85.9814H133.106V84.8315H142.291V85.9814ZM134.483 85.2856H133.106V82.3706H134.483V85.2856ZM134.579 75.1196H140.658V73.5376H142.035V78.833H133.202V73.5376H134.579V75.1196ZM140.658 77.7197V76.167H134.579V77.7197H140.658ZM154.391 76.9214H151.373V75.7715H154.391V76.9214ZM148.971 75.1343C148.971 75.979 148.824 76.7676 148.531 77.5C148.243 78.2275 147.826 78.8623 147.279 79.4043C146.732 79.9463 146.08 80.3613 145.323 80.6494L144.569 79.5142C145.248 79.2798 145.831 78.9453 146.319 78.5107C146.812 78.0713 147.188 77.561 147.447 76.98C147.706 76.3989 147.835 75.7837 147.835 75.1343V73.7939H148.971V75.1343ZM149.212 75.2002C149.212 75.7861 149.339 76.3501 149.593 76.8921C149.847 77.4292 150.213 77.9028 150.692 78.313C151.17 78.7231 151.732 79.0356 152.376 79.2505L151.622 80.3638C150.899 80.0952 150.272 79.707 149.74 79.1992C149.208 78.6865 148.8 78.0884 148.517 77.4048C148.238 76.7163 148.099 75.9814 148.099 75.2002V73.7939H149.212V75.2002ZM155.533 86.2378H154.142V82.6855H146.642V81.5723H155.533V86.2378ZM155.533 80.8984H154.142V73.1128H155.533V80.8984ZM167.875 81.9751H166.512V79.6753H167.875V81.9751ZM173.185 80.3271H161.217V79.1992H173.185V80.3271ZM167.193 81.5649C168.141 81.5649 168.951 81.6553 169.625 81.8359C170.304 82.0166 170.824 82.2827 171.185 82.6343C171.546 82.9858 171.727 83.4106 171.727 83.9087C171.727 84.397 171.546 84.812 171.185 85.1538C170.824 85.5005 170.304 85.7642 169.625 85.9448C168.951 86.1304 168.141 86.2231 167.193 86.2231C166.246 86.2231 165.431 86.1304 164.747 85.9448C164.063 85.7642 163.541 85.5005 163.18 85.1538C162.818 84.812 162.638 84.397 162.638 83.9087C162.638 83.4106 162.818 82.9858 163.18 82.6343C163.541 82.2827 164.063 82.0166 164.747 81.8359C165.431 81.6553 166.246 81.5649 167.193 81.5649ZM167.193 82.6343C166.524 82.6343 165.956 82.6855 165.487 82.7881C165.018 82.8857 164.662 83.0298 164.417 83.2202C164.173 83.4058 164.051 83.6353 164.051 83.9087C164.051 84.1675 164.173 84.3896 164.417 84.5752C164.662 84.7607 165.018 84.9023 165.487 85C165.956 85.1025 166.524 85.1538 167.193 85.1538C167.848 85.1538 168.412 85.1025 168.885 85C169.359 84.9023 169.718 84.7607 169.962 84.5752C170.206 84.3896 170.328 84.1675 170.328 83.9087C170.328 83.6353 170.206 83.4058 169.962 83.2202C169.718 83.0298 169.361 82.8857 168.893 82.7881C168.429 82.6855 167.862 82.6343 167.193 82.6343ZM167.508 74.6216C167.508 75.2954 167.284 75.9082 166.834 76.46C166.385 77.0068 165.768 77.4561 164.981 77.8076C164.195 78.1543 163.309 78.3862 162.323 78.5034L161.847 77.4048C162.672 77.3169 163.421 77.1411 164.095 76.8774C164.774 76.6089 165.306 76.2769 165.692 75.8813C166.078 75.481 166.271 75.061 166.271 74.6216V74.2407H167.508V74.6216ZM168.124 74.6216C168.124 75.0659 168.314 75.4858 168.695 75.8813C169.081 76.2769 169.613 76.6089 170.292 76.8774C170.97 77.1411 171.729 77.3169 172.569 77.4048L172.064 78.5034C171.092 78.3862 170.211 78.1543 169.42 77.8076C168.634 77.4561 168.014 77.0068 167.56 76.46C167.105 75.9082 166.878 75.2954 166.878 74.6216V74.2407H168.124V74.6216ZM172.115 74.8267H162.308V73.7134H172.115V74.8267ZM175.675 85.1025C175.489 85.1025 175.316 85.0537 175.155 84.9561C174.994 84.8584 174.867 84.7314 174.774 84.5752C174.686 84.4141 174.642 84.2407 174.642 84.0552C174.642 83.8745 174.686 83.7036 174.774 83.5425C174.867 83.3813 174.994 83.2568 175.155 83.1689C175.316 83.0762 175.489 83.0298 175.675 83.0298C175.855 83.0298 176.026 83.0762 176.188 83.1689C176.349 83.2568 176.476 83.3813 176.568 83.5425C176.661 83.7036 176.708 83.8745 176.708 84.0552C176.708 84.2407 176.661 84.4141 176.568 84.5752C176.476 84.7314 176.349 84.8584 176.188 84.9561C176.026 85.0537 175.855 85.1025 175.675 85.1025ZM179.63 85.1025C179.444 85.1025 179.271 85.0537 179.11 84.9561C178.949 84.8584 178.822 84.7314 178.729 84.5752C178.641 84.4141 178.597 84.2407 178.597 84.0552C178.597 83.8745 178.641 83.7036 178.729 83.5425C178.822 83.3813 178.949 83.2568 179.11 83.1689C179.271 83.0762 179.444 83.0298 179.63 83.0298C179.811 83.0298 179.981 83.0762 180.143 83.1689C180.304 83.2568 180.431 83.3813 180.523 83.5425C180.616 83.7036 180.663 83.8745 180.663 84.0552C180.663 84.2407 180.616 84.4141 180.523 84.5752C180.431 84.7314 180.304 84.8584 180.143 84.9561C179.981 85.0537 179.811 85.1025 179.63 85.1025ZM183.585 85.1025C183.399 85.1025 183.226 85.0537 183.065 84.9561C182.904 84.8584 182.777 84.7314 182.684 84.5752C182.596 84.4141 182.552 84.2407 182.552 84.0552C182.552 83.8745 182.596 83.7036 182.684 83.5425C182.777 83.3813 182.904 83.2568 183.065 83.1689C183.226 83.0762 183.399 83.0298 183.585 83.0298C183.766 83.0298 183.937 83.0762 184.098 83.1689C184.259 83.2568 184.386 83.3813 184.479 83.5425C184.571 83.7036 184.618 83.8745 184.618 84.0552C184.618 84.2407 184.571 84.4141 184.479 84.5752C184.386 84.7314 184.259 84.8584 184.098 84.9561C183.937 85.0537 183.766 85.1025 183.585 85.1025Z" fill="#F56E00"/>
<defs>
<filter id="filter0_d_563_10610" x="280.002" y="149.853" width="36.859" height="30.2408" filterUnits="userSpaceOnUse" color-interpolation-filters="sRGB">
<feFlood flood-opacity="0" result="BackgroundImageFix"/>
<feColorMatrix in="SourceAlpha" type="matrix" values="0 0 0 0 0 0 0 0 0 0 0 0 0 0 0 0 0 0 127 0" result="hardAlpha"/>
<feOffset dy="0.926755"/>
<feGaussianBlur stdDeviation="0.787742"/>
<feComposite in2="hardAlpha" operator="out"/>
<feColorMatrix type="matrix" values="0 0 0 0 0.752316 0 0 0 0 0.639227 0 0 0 0 0.546699 0 0 0 1 0"/>
<feBlend mode="normal" in2="BackgroundImageFix" result="effect1_dropShadow_563_10610"/>
<feBlend mode="normal" in="SourceGraphic" in2="effect1_dropShadow_563_10610" result="shape"/>
</filter>
<filter id="filter1_d_563_10610" x="223.885" y="148.695" width="29.5426" height="15.8072" filterUnits="userSpaceOnUse" color-interpolation-filters="sRGB">
<feFlood flood-opacity="0" result="BackgroundImageFix"/>
<feColorMatrix in="SourceAlpha" type="matrix" values="0 0 0 0 0 0 0 0 0 0 0 0 0 0 0 0 0 0 127 0" result="hardAlpha"/>
<feOffset dy="0.926755"/>
<feGaussianBlur stdDeviation="0.787742"/>
<feComposite in2="hardAlpha" operator="out"/>
<feColorMatrix type="matrix" values="0 0 0 0 0.752316 0 0 0 0 0.639227 0 0 0 0 0.546699 0 0 0 0.58 0"/>
<feBlend mode="normal" in2="BackgroundImageFix" result="effect1_dropShadow_563_10610"/>
<feBlend mode="normal" in="SourceGraphic" in2="effect1_dropShadow_563_10610" result="shape"/>
</filter>
<filter id="filter2_d_563_10610" x="238.268" y="143.049" width="57.33" height="47.1503" filterUnits="userSpaceOnUse" color-interpolation-filters="sRGB">
<feFlood flood-opacity="0" result="BackgroundImageFix"/>
<feColorMatrix in="SourceAlpha" type="matrix" values="0 0 0 0 0 0 0 0 0 0 0 0 0 0 0 0 0 0 127 0" result="hardAlpha"/>
<feOffset/>
<feGaussianBlur stdDeviation="1.18161"/>
<feComposite in2="hardAlpha" operator="out"/>
<feColorMatrix type="matrix" values="0 0 0 0 0.799679 0 0 0 0 0.652943 0 0 0 0 0.506207 0 0 0 1 0"/>
<feBlend mode="normal" in2="BackgroundImageFix" result="effect1_dropShadow_563_10610"/>
<feBlend mode="normal" in="SourceGraphic" in2="effect1_dropShadow_563_10610" result="shape"/>
</filter>
<filter id="filter3_d_563_10610" x="238.414" y="140.771" width="60.5947" height="48.6543" filterUnits="userSpaceOnUse" color-interpolation-filters="sRGB">
<feFlood flood-opacity="0" result="BackgroundImageFix"/>
<feColorMatrix in="SourceAlpha" type="matrix" values="0 0 0 0 0 0 0 0 0 0 0 0 0 0 0 0 0 0 127 0" result="hardAlpha"/>
<feOffset dy="1.85351"/>
<feGaussianBlur stdDeviation="0.926755"/>
<feComposite in2="hardAlpha" operator="out"/>
<feColorMatrix type="matrix" values="0 0 0 0 0 0 0 0 0 0 0 0 0 0 0 0 0 0 0.25 0"/>
<feBlend mode="normal" in2="BackgroundImageFix" result="effect1_dropShadow_563_10610"/>
<feBlend mode="normal" in="SourceGraphic" in2="effect1_dropShadow_563_10610" result="shape"/>
</filter>
<filter id="filter4_d_563_10610" x="234.472" y="99.9033" width="73.7734" height="57.2422" filterUnits="userSpaceOnUse" color-interpolation-filters="sRGB">
<feFlood flood-opacity="0" result="BackgroundImageFix"/>
<feColorMatrix in="SourceAlpha" type="matrix" values="0 0 0 0 0 0 0 0 0 0 0 0 0 0 0 0 0 0 127 0" result="hardAlpha"/>
<feOffset dy="0.926755"/>
<feGaussianBlur stdDeviation="0.926755"/>
<feComposite in2="hardAlpha" operator="out"/>
<feColorMatrix type="matrix" values="0 0 0 0 0.777244 0 0 0 0 0.681956 0 0 0 0 0.586669 0 0 0 0.67 0"/>
<feBlend mode="normal" in2="BackgroundImageFix" result="effect1_dropShadow_563_10610"/>
<feBlend mode="normal" in="SourceGraphic" in2="effect1_dropShadow_563_10610" result="shape"/>
</filter>
<filter id="filter5_d_563_10610" x="239.805" y="52.3364" width="84.8418" height="64.5586" filterUnits="userSpaceOnUse" color-interpolation-filters="sRGB">
<feFlood flood-opacity="0" result="BackgroundImageFix"/>
<feColorMatrix in="SourceAlpha" type="matrix" values="0 0 0 0 0 0 0 0 0 0 0 0 0 0 0 0 0 0 127 0" result="hardAlpha"/>
<feOffset dy="-0.463378"/>
<feGaussianBlur stdDeviation="1.39013"/>
<feComposite in2="hardAlpha" operator="out"/>
<feColorMatrix type="matrix" values="0 0 0 0 0.636218 0 0 0 0 0.528193 0 0 0 0 0.470026 0 0 0 0.25 0"/>
<feBlend mode="normal" in2="BackgroundImageFix" result="effect1_dropShadow_563_10610"/>
<feBlend mode="normal" in="SourceGraphic" in2="effect1_dropShadow_563_10610" result="shape"/>
</filter>
<filter id="filter6_d_563_10610" x="206.262" y="122.94" width="38.6711" height="40.7238" filterUnits="userSpaceOnUse" color-interpolation-filters="sRGB">
<feFlood flood-opacity="0" result="BackgroundImageFix"/>
<feColorMatrix in="SourceAlpha" type="matrix" values="0 0 0 0 0 0 0 0 0 0 0 0 0 0 0 0 0 0 127 0" result="hardAlpha"/>
<feOffset/>
<feGaussianBlur stdDeviation="1.1082"/>
<feComposite in2="hardAlpha" operator="out"/>
<feColorMatrix type="matrix" values="0 0 0 0 0.841346 0 0 0 0 0.696403 0 0 0 0 0.551459 0 0 0 1 0"/>
<feBlend mode="normal" in2="BackgroundImageFix" result="effect1_dropShadow_563_10610"/>
<feBlend mode="normal" in="SourceGraphic" in2="effect1_dropShadow_563_10610" result="shape"/>
</filter>
<linearGradient id="paint0_linear_563_10610" x1="306.449" y1="169.498" x2="273.87" y2="152.368" gradientUnits="userSpaceOnUse">
<stop stop-color="#FFFDFC"/>
<stop offset="1" stop-color="#F5ECE5"/>
</linearGradient>
<linearGradient id="paint1_linear_563_10610" x1="232.947" y1="155.611" x2="256.976" y2="155.554" gradientUnits="userSpaceOnUse">
<stop stop-color="#FFFDFC"/>
<stop offset="1" stop-color="#F5ECE5"/>
</linearGradient>
<linearGradient id="paint2_linear_563_10610" x1="270.932" y1="145.263" x2="268.566" y2="166.857" gradientUnits="userSpaceOnUse">
<stop stop-color="#EDE3DC"/>
<stop offset="1" stop-color="#FFF7F1"/>
</linearGradient>
<linearGradient id="paint3_linear_563_10610" x1="276.275" y1="99.5195" x2="276.275" y2="143.853" gradientUnits="userSpaceOnUse">
<stop stop-color="#FFF5EC"/>
<stop offset="1" stop-color="white"/>
</linearGradient>
<linearGradient id="paint4_linear_563_10610" x1="260.419" y1="119.334" x2="260.419" y2="133.334" gradientUnits="userSpaceOnUse">
<stop stop-color="#797979"/>
<stop offset="1" stop-color="#444444"/>
</linearGradient>
<linearGradient id="paint5_linear_563_10610" x1="283.324" y1="123.785" x2="283.324" y2="137.785" gradientUnits="userSpaceOnUse">
<stop stop-color="#797979"/>
<stop offset="1" stop-color="#444444"/>
</linearGradient>
<radialGradient id="paint6_radial_563_10610" cx="0" cy="0" r="1" gradientUnits="userSpaceOnUse" gradientTransform="translate(244.957 133.948) rotate(90) scale(8.40012 14.0002)">
<stop stop-color="#FFDEC2"/>
<stop offset="1" stop-color="#FFDEC2" stop-opacity="0"/>
</radialGradient>
<radialGradient id="paint7_radial_563_10610" cx="0" cy="0" r="1" gradientUnits="userSpaceOnUse" gradientTransform="translate(292.159 144.189) rotate(90) scale(8.40012 14.0002)">
<stop stop-color="#FFDEC2"/>
<stop offset="1" stop-color="#FFDEC2" stop-opacity="0"/>
</radialGradient>
<linearGradient id="paint8_linear_563_10610" x1="231.112" y1="153.851" x2="220.472" y2="136.783" gradientUnits="userSpaceOnUse">
<stop stop-color="#F8ECE3"/>
<stop offset="1" stop-color="#FFF7F1"/>
</linearGradient>
</defs>
</svg>
