<svg width="26" height="26" viewBox="0 0 26 26" fill="none" xmlns="http://www.w3.org/2000/svg">
<path d="M24.9239 5.81296L21.9093 2.79841C21.8087 2.69978 21.6734 2.64453 21.5325 2.64453C21.3916 2.64453 21.2563 2.69978 21.1557 2.79841L8.45149 15.5026C8.35086 15.6012 8.21557 15.6565 8.07467 15.6565C7.93376 15.6565 7.79848 15.6012 7.69785 15.5026L4.6833 12.488C4.58267 12.3894 4.44739 12.3342 4.30648 12.3342C4.16558 12.3342 4.03029 12.3894 3.92966 12.488L0.915111 15.5026C0.816478 15.6032 0.76123 15.7385 0.76123 15.8794C0.76123 16.0203 0.816478 16.1556 0.915111 16.2562L7.69785 23.039C7.79848 23.1376 7.93376 23.1928 8.07467 23.1928C8.21557 23.1928 8.35086 23.1376 8.45149 23.039L24.9239 6.5666C25.0225 6.46597 25.0777 6.33069 25.0777 6.18978C25.0777 6.04888 25.0225 5.91359 24.9239 5.81296Z" fill="white"/>
</svg>
