<svg width="20" height="20" viewBox="0 0 20 20" fill="none" xmlns="http://www.w3.org/2000/svg">
<circle cx="10" cy="10" r="10" fill="#F56E00"/>
<path d="M14.25 4.66699C14.3664 4.66699 14.4804 4.70014 14.5771 4.7627L14.668 4.83496L14.6709 4.83789L16.1582 6.30469L16.1602 6.30664C16.2704 6.41758 16.333 6.56828 16.333 6.72559C16.3329 6.8828 16.2704 7.03268 16.1602 7.14355L16.1582 7.14648L8.0293 15.1621L8.02637 15.165C7.91418 15.2733 7.76446 15.3329 7.60938 15.333C7.45409 15.333 7.30368 15.2735 7.19141 15.165L7.18945 15.1621L3.8418 11.8613L3.83984 11.8594C3.72958 11.7484 3.66699 11.5977 3.66699 11.4404C3.66711 11.2833 3.72967 11.1333 3.83984 11.0225L3.8418 11.0205L5.3291 9.55273L5.33203 9.55078C5.44431 9.44227 5.59469 9.38184 5.75 9.38184L5.86426 9.39355C5.93958 9.40817 6.0116 9.43677 6.07617 9.47852L6.16699 9.55078L6.16992 9.55273L7.6084 10.9727L13.8301 4.83789L13.833 4.83496C13.9452 4.72666 14.0949 4.66711 14.25 4.66699Z" fill="#FFE3C8" stroke="#F56E00" stroke-width="0.666667"/>
</svg>
