<svg width="22" height="22" viewBox="0 0 22 22" fill="none" xmlns="http://www.w3.org/2000/svg">
<g clip-path="url(#clip0_563_845)">
<path d="M20.5452 10.7127C18.4858 6.90545 14.8741 4.60156 10.8774 4.60156C6.88078 4.60156 3.263 6.90545 1.22189 10.7127L1.05078 10.9999L1.20967 11.2932C3.26911 15.1005 6.88078 17.4043 10.8774 17.4043C14.8741 17.4043 18.4919 15.131 20.5452 11.2932L20.7041 10.9999L20.5452 10.7127ZM10.8774 16.1516C7.43689 16.1516 4.27745 14.2327 2.44411 10.9999C4.27745 7.76712 7.43689 5.84823 10.8774 5.84823C14.318 5.84823 17.4408 7.77323 19.3047 10.9999C17.4408 14.2327 14.3119 16.1516 10.8774 16.1516Z" fill="#C6BCB4"/>
<path d="M11.0552 6.82628C10.2266 6.83233 9.41837 7.08379 8.73261 7.54891C8.04684 8.01403 7.5143 8.67194 7.20223 9.43954C6.89016 10.2071 6.81257 11.05 6.97925 11.8617C7.14593 12.6734 7.54942 13.4175 8.13874 14C8.72806 14.5825 9.47679 14.9772 10.2904 15.1345C11.1039 15.2917 11.9458 15.2043 12.7097 14.8833C13.4737 14.5623 14.1253 14.0221 14.5824 13.331C15.0395 12.6399 15.2816 11.8288 15.278 11.0002C15.2756 10.4486 15.1643 9.90293 14.9507 9.39443C14.737 8.88592 14.4251 8.42458 14.0328 8.03684C13.6405 7.64909 13.1756 7.34257 12.6646 7.13484C12.1537 6.92711 11.6067 6.82226 11.0552 6.82628ZM11.0552 13.9885C10.4699 13.9825 9.89944 13.8036 9.41546 13.4744C8.93148 13.1453 8.55556 12.6804 8.33491 12.1383C8.11426 11.5961 8.05872 11.0009 8.17527 10.4273C8.29182 9.85369 8.57525 9.32731 8.98998 8.91427C9.40471 8.50124 9.93223 8.21995 10.5063 8.10575C11.0804 7.99154 11.6754 8.04951 12.2166 8.27237C12.7579 8.49523 13.2212 8.87304 13.5484 9.35836C13.8756 9.84368 14.0521 10.4149 14.0557 11.0002C14.0574 11.3941 13.9808 11.7844 13.8304 12.1485C13.68 12.5126 13.4589 12.8432 13.1798 13.1212C12.9007 13.3992 12.5691 13.619 12.2044 13.7679C11.8397 13.9167 11.4491 13.9917 11.0552 13.9885Z" fill="#C6BCB4"/>
<path d="M16.6416 1.92578L6.41682 19.6356" stroke="#C6BCB4" stroke-width="1.19167"/>
</g>
<defs>
<clipPath id="clip0_563_845">
<rect width="22" height="22" fill="white"/>
</clipPath>
</defs>
</svg>
