<svg width="20" height="20" viewBox="0 0 20 20" fill="none" xmlns="http://www.w3.org/2000/svg">
<path d="M7.68571 1C9.45888 1 11.1594 1.70439 12.4132 2.9582C13.667 4.21202 14.3714 5.91255 14.3714 7.68571C14.3714 9.34171 13.7646 10.864 12.7669 12.0366L13.0446 12.3143H13.8571L19 17.4571L17.4571 19L12.3143 13.8571V13.0446L12.0366 12.7669C10.8232 13.8021 9.28066 14.371 7.68571 14.3714C5.91255 14.3714 4.21202 13.667 2.9582 12.4132C1.70439 11.1594 1 9.45888 1 7.68571C1 5.91255 1.70439 4.21202 2.9582 2.9582C4.21202 1.70439 5.91255 1 7.68571 1ZM7.68571 3.05714C5.11429 3.05714 3.05714 5.11429 3.05714 7.68571C3.05714 10.2571 5.11429 12.3143 7.68571 12.3143C10.2571 12.3143 12.3143 10.2571 12.3143 7.68571C12.3143 5.11429 10.2571 3.05714 7.68571 3.05714Z" fill="black"/>
</svg>
