<svg width="213" height="136" viewBox="0 0 213 136" fill="none" xmlns="http://www.w3.org/2000/svg">
<path d="M27.5352 71.7484C25.1933 68.4281 21.6802 66.2747 17.6443 65.8633C13.6156 65.446 9.39421 66.8046 6.03358 69.539C2.67295 72.2733 0.484176 76.1301 0.0734444 80.1595C-0.344526 84.1948 1.04949 88.0724 3.82414 91.0406C6.67794 94.1461 9.75371 97.1692 12.8338 99.9353C67.721 154.205 161.699 143.125 204.761 89.7311C207.313 87.0729 209.856 84.2986 212.4 81.3945C209.496 83.9383 206.61 86.3353 203.734 88.5989C152.079 135.254 71.9289 129.38 33.5344 79.569C31.4004 77.0385 29.3287 74.3584 27.5352 71.7484Z" fill="white"/>
<path d="M190.91 45.4418H207.792V71.3285H183.706C165.192 71.3285 157.426 63.1685 157.426 47.13C157.426 31.0916 165.192 22.9316 183.706 22.9316C192.317 22.9316 198.732 23.6632 205.541 24.9013L204.416 40.2082C198.394 39.5891 192.317 38.9701 186.295 38.9701C180.668 38.9701 177.122 41.5025 177.122 47.13C177.122 52.7576 180.668 55.29 186.295 55.29H190.91V45.4418Z" fill="white"/>
<path d="M123.835 47.3416H105.546V0.0703125L135.428 0.0703125C148.99 0.0703125 154.674 4.12214 154.674 12.057C154.674 16.7841 152.423 20.2169 147.865 22.4116C153.605 24.4938 157.038 28.8833 157.038 34.0606C157.038 43.0647 151.861 47.3416 135.428 47.3416H126.086L124.398 33.5542H133.346C137.173 33.5542 138.748 32.6538 138.748 30.7404C138.748 28.827 137.173 27.9266 133.346 27.9266H123.835V47.3416ZM123.835 18.0784H133.065C136.103 18.0784 137.51 17.178 137.51 15.546C137.51 13.9141 136.103 13.0136 133.065 13.0136H123.835V18.0784Z" fill="white"/>
<path d="M85.5161 45.4418H102.399V71.3285H78.3128C59.7982 71.3285 52.0322 63.1685 52.0322 47.13C52.0322 31.0916 59.7982 22.9316 78.3128 22.9316C86.923 22.9316 93.3383 23.6632 100.148 24.9013L99.0222 40.2082C93.0007 39.5891 86.923 38.9701 80.9015 38.9701C75.274 38.9701 71.7286 41.5025 71.7286 47.13C71.7286 52.7576 75.274 55.29 80.9015 55.29H85.5161V45.4418Z" fill="white"/>
<path d="M18.6889 47.2713H0.399414L0.399414 0L30.2816 0C43.844 0 49.5278 4.05183 49.5278 11.9867C49.5278 16.7138 47.2768 20.1466 42.7185 22.3413C48.4586 24.4235 51.8914 28.813 51.8914 33.9903C51.8914 42.9944 46.7141 47.2713 30.2816 47.2713H20.9399L19.2517 33.4838H28.1994C32.0262 33.4838 33.6019 32.5834 33.6019 30.6701C33.6019 28.7567 32.0262 27.8563 28.1994 27.8563H18.6889V47.2713ZM18.6889 18.0081H27.9181C30.9569 18.0081 32.3638 17.1077 32.3638 15.4757C32.3638 13.8437 30.9569 12.9433 27.9181 12.9433H18.6889V18.0081Z" fill="white"/>
</svg>
