<svg width="105" height="66" viewBox="0 0 105 66" fill="none" xmlns="http://www.w3.org/2000/svg">
<g opacity="0.3">
<path opacity="0.3" d="M14.2872 32.2274C13.072 30.5046 11.2492 29.3872 9.1551 29.1738C7.06473 28.9572 4.87442 29.6622 3.1307 31.081C1.38698 32.4997 0.251299 34.5009 0.0381842 36.5916C-0.178687 38.6854 0.544619 40.6973 1.98429 42.2375C3.46504 43.8488 5.06095 45.4174 6.65911 46.8526C35.1383 75.0115 83.9004 69.2624 106.244 41.558C107.568 40.1787 108.887 38.7392 110.207 37.2324C108.7 38.5523 107.203 39.796 105.711 40.9705C78.9089 65.1783 37.3216 62.1307 17.4 36.2852C16.2927 34.9722 15.2178 33.5816 14.2872 32.2274Z" fill="#F56E00"/>
<g opacity="0.3">
<path d="M99.0563 18.5782H107.816V32.0099H95.3187C85.7121 32.0099 81.6826 27.776 81.6826 19.4542C81.6826 11.1324 85.7121 6.89844 95.3187 6.89844C99.7863 6.89844 103.115 7.27803 106.648 7.92042L106.064 15.8627C102.94 15.5415 99.7863 15.2203 96.6619 15.2203C93.742 15.2203 91.9024 16.5342 91.9024 19.4542C91.9024 22.3741 93.742 23.6881 96.6619 23.6881H99.0563V18.5782Z" fill="#F56E00"/>
<path d="M64.2535 19.5646H54.7637V-4.96289H70.2686C77.3056 -4.96289 80.2548 -2.86053 80.2548 1.25658C80.2548 3.70934 79.0868 5.4905 76.7216 6.62928C79.7 7.70965 81.4811 9.98721 81.4811 12.6736C81.4811 17.3455 78.7948 19.5646 70.2686 19.5646H65.4215L64.5455 12.4108H69.1882C71.1737 12.4108 71.9913 11.9436 71.9913 10.9508C71.9913 9.95801 71.1737 9.49082 69.1882 9.49082H64.2535V19.5646ZM64.2535 4.38092H69.0422C70.619 4.38092 71.3489 3.91373 71.3489 3.06695C71.3489 2.22016 70.619 1.75297 69.0422 1.75297H64.2535V4.38092Z" fill="#F56E00"/>
<path d="M44.3707 18.5782H53.1305V32.0099H40.6332C31.0266 32.0099 26.9971 27.776 26.9971 19.4542C26.9971 11.1324 31.0266 6.89844 40.6332 6.89844C45.1007 6.89844 48.4294 7.27803 51.9626 7.92042L51.3786 15.8627C48.2542 15.5415 45.1007 15.2203 41.9764 15.2203C39.0564 15.2203 37.2169 16.5342 37.2169 19.4542C37.2169 22.3741 39.0564 23.6881 41.9764 23.6881H44.3707V18.5782Z" fill="#F56E00"/>
<path d="M9.69684 19.5275H0.207031L0.207031 -5H15.7119C22.749 -5 25.6981 -2.89764 25.6981 1.21947C25.6981 3.67223 24.5301 5.45339 22.165 6.59217C25.1433 7.67255 26.9245 9.9501 26.9245 12.6364C26.9245 17.3084 24.2381 19.5275 15.7119 19.5275H10.8648L9.98884 12.3737H14.6315C16.6171 12.3737 17.4347 11.9065 17.4347 10.9137C17.4347 9.9209 16.6171 9.45371 14.6315 9.45371H9.69684V19.5275ZM9.69684 4.34381H14.4855C16.0623 4.34381 16.7923 3.87662 16.7923 3.02984C16.7923 2.18305 16.0623 1.71587 14.4855 1.71587H9.69684V4.34381Z" fill="#F56E00"/>
</g>
</g>
</svg>
