<svg width="394" height="466" viewBox="0 0 394 466" fill="none" xmlns="http://www.w3.org/2000/svg">
<g clip-path="url(#clip0_234_4130)">
<rect width="394" height="466" fill="white"/>
<circle cx="198" cy="335" r="131" fill="#FFE3C8"/>
<g filter="url(#filter0_d_234_4130)">
<path d="M249.97 426.591C256.908 434.673 279.234 443.826 289.53 447.392L298.793 446.027C293.888 434.672 302.807 420.863 296.599 422.032C290.39 423.202 251.792 404.278 245.681 396L240.786 408.597C240.957 411.228 243.033 418.508 249.97 426.591Z" fill="url(#paint0_linear_234_4130)"/>
</g>
<g filter="url(#filter1_d_234_4130)">
<path d="M162.435 418.613C154.415 422.557 134.931 420.313 126.191 418.699L120.045 413.194C127.833 405.408 144.415 390.815 148.439 394.73C152.463 398.646 169.5 398 177 393.5L175.79 406.931C174.68 409.182 170.455 414.67 162.435 418.613Z" fill="url(#paint1_linear_234_4130)"/>
</g>
<g filter="url(#filter2_d_234_4130)">
<path d="M183.465 386.056L220.873 385.012L238.027 387.056C251.179 408.788 274.646 455.215 263.293 467.062C249.102 481.87 147.331 480.745 153.012 453.924C157.556 432.466 172.757 399.446 183.465 386.056Z" fill="url(#paint2_linear_234_4130)"/>
</g>
<g filter="url(#filter3_d_234_4130)">
<path d="M176.767 413L181.267 378H195.767L191.767 413C197.767 409 219.267 411.333 229.267 413L225.767 378L234.767 375L240.767 390.5L244.267 413C260.267 406.6 271.267 447 274.767 468L153.267 472C146.867 427.6 166.267 414.167 176.767 413Z" fill="#E7B082"/>
</g>
<g filter="url(#filter4_d_234_4130)">
<rect x="159.207" y="285.973" width="140.996" height="95.6756" rx="16.2" transform="rotate(11.1763 159.207 285.973)" fill="url(#paint3_linear_234_4130)"/>
</g>
<g filter="url(#filter5_d_234_4130)">
<path fill-rule="evenodd" clip-rule="evenodd" d="M193.243 261.845L176.297 298.737C194.49 308.011 241.036 324.489 281.678 316.214L279.666 289.171C300.136 291.243 339.885 279.709 324.73 243.169C309.575 206.629 266.921 190.118 246.423 191.196C238.661 191.604 231.293 196.109 223.849 195.649C211.634 194.895 198.809 189.845 190.836 193.274C178.005 198.792 168.497 206.488 168.497 206.488C155.769 224.47 142.9 260.715 193.243 261.845Z" fill="white"/>
</g>
<rect x="187.936" y="328.736" width="15.1067" height="30.2134" rx="7.55334" transform="rotate(10.9956 187.936 328.736)" fill="url(#paint4_linear_234_4130)"/>
<rect x="237.367" y="338.339" width="15.1067" height="30.2134" rx="7.55334" transform="rotate(10.9956 237.367 338.339)" fill="url(#paint5_linear_234_4130)"/>
<ellipse cx="189.99" cy="356.377" rx="5.03556" ry="2.51778" transform="rotate(16.7075 189.99 356.377)" fill="#E4E4E4"/>
<ellipse cx="239.467" cy="366.32" rx="5.03556" ry="2.51778" transform="rotate(13.3138 239.467 366.32)" fill="#E4E4E4"/>
<ellipse cx="162.121" cy="360.27" rx="50.3556" ry="30.2134" transform="rotate(17.5466 162.121 360.27)" fill="url(#paint6_radial_234_4130)" fill-opacity="0.32"/>
<ellipse cx="263.986" cy="382.371" rx="50.3556" ry="30.2134" transform="rotate(11.0923 263.986 382.371)" fill="url(#paint7_radial_234_4130)" fill-opacity="0.32"/>
<path d="M193.243 261.845C142.9 260.715 155.769 224.47 168.496 206.489L176.219 201.251C186.752 195.779 193.369 190.043 179.616 204.724C157.369 228.471 189.46 240.404 207.276 242.517C216.667 272.949 251.117 262.54 267.169 253.532C275.853 279.516 310.209 273.303 326.302 266.949C319.622 288.074 292.428 290.566 279.666 289.171C270.063 286.135 263.873 280.657 261.979 278.298C224.472 283.338 207.941 268.253 204.363 260.08L193.243 261.845Z" fill="#F6F1EC"/>
<path d="M203.975 286.363L212.448 267.918L213.207 265.517L265.898 274.255C263.864 307.412 260.072 309.382 258.43 306.223C254.589 305.008 258.101 284.993 260.337 275.138L246.816 276.144C237.806 311.32 232.188 308.488 230.505 302.674C228.585 302.067 234.177 282.71 237.213 273.108L224.451 271.713C200.882 312.848 200.98 298.62 203.975 286.363Z" fill="#F6F1EC" fill-opacity="0.63"/>
<path d="M179.328 412.452L183.254 380.655C183.531 378.412 185.656 376.878 187.872 377.321C189.807 377.708 191.145 379.476 190.985 381.443C189.777 396.279 187.897 420.37 188.267 420C188.595 419.672 189.843 418.872 190.741 418.32C191.089 418.105 191.404 417.846 191.729 417.598C197.778 412.986 221.361 416.222 232.728 418.492C232.755 418.498 232.781 418.5 232.808 418.5C233.053 418.5 233.245 418.288 233.219 418.043L230.1 388.187C229.936 386.62 231.357 385.353 232.894 385.695C233.737 385.882 234.864 385.775 235.313 386.512C237.346 389.853 240.517 404.761 242.511 415.375C242.838 417.115 245.496 418.5 247.267 418.5C257.346 418.127 266.468 449.662 270.485 468.639C270.963 470.899 269.773 473.164 267.663 474.102C267.071 474.365 266.434 474.509 265.787 474.528L163.078 477.435C161.612 477.476 160.201 476.872 159.22 475.781L157.367 473.723C156.653 472.929 156.206 471.901 156.113 470.837C152.864 433.505 164.915 420.461 174.253 417.627C176.734 416.874 179.011 415.026 179.328 412.452Z" stroke="white" stroke-opacity="0.26" stroke-width="3" stroke-dasharray="5 5"/>
<g filter="url(#filter6_d_234_4130)">
<path d="M102.175 377.727C125.354 339.956 148.094 367.002 156.566 385.247C161.5 403.13 139.805 415.613 128.341 419.619C82.7342 410.252 91.8943 387.788 102.175 377.727Z" fill="url(#paint8_linear_234_4130)"/>
<rect width="28.0767" height="16.2493" rx="8.12463" transform="matrix(-0.186872 0.982384 0.966008 0.258511 142.931 354.926)" fill="#FFF7F1"/>
<rect width="35.5109" height="15.6928" rx="7.8464" transform="matrix(0.398469 0.917182 0.905385 -0.424593 106.835 345.368)" fill="#FFF7F1"/>
<rect width="33.637" height="15.6928" rx="7.8464" transform="matrix(0.595564 0.803308 0.785909 -0.618342 86.2162 360.135)" fill="#FFF7F1"/>
<rect width="34.519" height="15.6928" rx="7.8464" transform="matrix(0.677562 0.735466 0.715745 -0.698362 80.1982 385.889)" fill="#FFF7F1"/>
</g>
<path d="M132.724 231.224C134.461 235.766 142.318 267.356 137.776 269.092C133.234 270.829 118.013 242.055 116.276 237.513C114.54 232.971 116.814 227.881 121.356 226.144C125.898 224.408 130.988 226.682 132.724 231.224Z" fill="#FFB579"/>
<path d="M90.013 245.014C93.7749 248.095 116.275 271.619 113.194 275.381C110.113 279.143 82.6172 261.719 78.8553 258.637C75.0934 255.556 74.5414 250.009 77.6225 246.247C80.7036 242.485 86.251 241.933 90.013 245.014Z" fill="#FF953E"/>
<path d="M73.7967 292.662C78.655 292.456 111.105 295.028 111.311 299.886C111.517 304.744 79.4002 310.05 74.5419 310.256C69.6836 310.461 65.5783 306.69 65.3726 301.831C65.1668 296.973 68.9384 292.868 73.7967 292.662Z" fill="#FF9239"/>
<path d="M324.867 403.362C315.968 408.698 285.397 405.862 271.225 403.777L244.947 474.214C239.61 477.767 235.261 474.289 233.754 472.106L264.451 395.05C273.228 373.912 294.828 372.867 304.53 374.987C327.816 380.074 327.791 396.023 324.867 403.362Z" fill="url(#paint9_linear_234_4130)"/>
<path d="M68.8408 357C79.3039 418.875 133.148 466 198 466C238.849 466 275.328 447.302 299.353 418H394V571H1V357H68.8408Z" fill="white"/>
</g>
<defs>
<filter id="filter0_d_234_4130" x="237.386" y="394.6" width="64.9051" height="58.1921" filterUnits="userSpaceOnUse" color-interpolation-filters="sRGB">
<feFlood flood-opacity="0" result="BackgroundImageFix"/>
<feColorMatrix in="SourceAlpha" type="matrix" values="0 0 0 0 0 0 0 0 0 0 0 0 0 0 0 0 0 0 127 0" result="hardAlpha"/>
<feOffset dy="2"/>
<feGaussianBlur stdDeviation="1.7"/>
<feComposite in2="hardAlpha" operator="out"/>
<feColorMatrix type="matrix" values="0 0 0 0 0.752316 0 0 0 0 0.639227 0 0 0 0 0.546699 0 0 0 1 0"/>
<feBlend mode="normal" in2="BackgroundImageFix" result="effect1_dropShadow_234_4130"/>
<feBlend mode="normal" in="SourceGraphic" in2="effect1_dropShadow_234_4130" result="shape"/>
</filter>
<filter id="filter1_d_234_4130" x="116.645" y="392.1" width="63.7551" height="34.1137" filterUnits="userSpaceOnUse" color-interpolation-filters="sRGB">
<feFlood flood-opacity="0" result="BackgroundImageFix"/>
<feColorMatrix in="SourceAlpha" type="matrix" values="0 0 0 0 0 0 0 0 0 0 0 0 0 0 0 0 0 0 127 0" result="hardAlpha"/>
<feOffset dy="2"/>
<feGaussianBlur stdDeviation="1.7"/>
<feComposite in2="hardAlpha" operator="out"/>
<feColorMatrix type="matrix" values="0 0 0 0 0.752316 0 0 0 0 0.639227 0 0 0 0 0.546699 0 0 0 0.58 0"/>
<feBlend mode="normal" in2="BackgroundImageFix" result="effect1_dropShadow_234_4130"/>
<feBlend mode="normal" in="SourceGraphic" in2="effect1_dropShadow_234_4130" result="shape"/>
</filter>
<filter id="filter2_d_234_4130" x="147.683" y="379.912" width="123.722" height="101.756" filterUnits="userSpaceOnUse" color-interpolation-filters="sRGB">
<feFlood flood-opacity="0" result="BackgroundImageFix"/>
<feColorMatrix in="SourceAlpha" type="matrix" values="0 0 0 0 0 0 0 0 0 0 0 0 0 0 0 0 0 0 127 0" result="hardAlpha"/>
<feOffset/>
<feGaussianBlur stdDeviation="2.55"/>
<feComposite in2="hardAlpha" operator="out"/>
<feColorMatrix type="matrix" values="0 0 0 0 0.799679 0 0 0 0 0.652943 0 0 0 0 0.506207 0 0 0 1 0"/>
<feBlend mode="normal" in2="BackgroundImageFix" result="effect1_dropShadow_234_4130"/>
<feBlend mode="normal" in="SourceGraphic" in2="effect1_dropShadow_234_4130" result="shape"/>
</filter>
<filter id="filter3_d_234_4130" x="148" y="375" width="130.767" height="105" filterUnits="userSpaceOnUse" color-interpolation-filters="sRGB">
<feFlood flood-opacity="0" result="BackgroundImageFix"/>
<feColorMatrix in="SourceAlpha" type="matrix" values="0 0 0 0 0 0 0 0 0 0 0 0 0 0 0 0 0 0 127 0" result="hardAlpha"/>
<feOffset dy="4"/>
<feGaussianBlur stdDeviation="2"/>
<feComposite in2="hardAlpha" operator="out"/>
<feColorMatrix type="matrix" values="0 0 0 0 0 0 0 0 0 0 0 0 0 0 0 0 0 0 0.25 0"/>
<feBlend mode="normal" in2="BackgroundImageFix" result="effect1_dropShadow_234_4130"/>
<feBlend mode="normal" in="SourceGraphic" in2="effect1_dropShadow_234_4130" result="shape"/>
</filter>
<filter id="filter4_d_234_4130" x="139.492" y="286.802" width="159.207" height="123.531" filterUnits="userSpaceOnUse" color-interpolation-filters="sRGB">
<feFlood flood-opacity="0" result="BackgroundImageFix"/>
<feColorMatrix in="SourceAlpha" type="matrix" values="0 0 0 0 0 0 0 0 0 0 0 0 0 0 0 0 0 0 127 0" result="hardAlpha"/>
<feOffset dy="2"/>
<feGaussianBlur stdDeviation="2"/>
<feComposite in2="hardAlpha" operator="out"/>
<feColorMatrix type="matrix" values="0 0 0 0 0.777244 0 0 0 0 0.681956 0 0 0 0 0.586669 0 0 0 0.67 0"/>
<feBlend mode="normal" in2="BackgroundImageFix" result="effect1_dropShadow_234_4130"/>
<feBlend mode="normal" in="SourceGraphic" in2="effect1_dropShadow_234_4130" result="shape"/>
</filter>
<filter id="filter5_d_234_4130" x="151.002" y="184.147" width="183.094" height="139.322" filterUnits="userSpaceOnUse" color-interpolation-filters="sRGB">
<feFlood flood-opacity="0" result="BackgroundImageFix"/>
<feColorMatrix in="SourceAlpha" type="matrix" values="0 0 0 0 0 0 0 0 0 0 0 0 0 0 0 0 0 0 127 0" result="hardAlpha"/>
<feOffset dy="-1"/>
<feGaussianBlur stdDeviation="3"/>
<feComposite in2="hardAlpha" operator="out"/>
<feColorMatrix type="matrix" values="0 0 0 0 0.636218 0 0 0 0 0.528193 0 0 0 0 0.470026 0 0 0 0.25 0"/>
<feBlend mode="normal" in2="BackgroundImageFix" result="effect1_dropShadow_234_4130"/>
<feBlend mode="normal" in="SourceGraphic" in2="effect1_dropShadow_234_4130" result="shape"/>
</filter>
<filter id="filter6_d_234_4130" x="78.6141" y="336.518" width="83.4535" height="87.8839" filterUnits="userSpaceOnUse" color-interpolation-filters="sRGB">
<feFlood flood-opacity="0" result="BackgroundImageFix"/>
<feColorMatrix in="SourceAlpha" type="matrix" values="0 0 0 0 0 0 0 0 0 0 0 0 0 0 0 0 0 0 127 0" result="hardAlpha"/>
<feOffset/>
<feGaussianBlur stdDeviation="2.39158"/>
<feComposite in2="hardAlpha" operator="out"/>
<feColorMatrix type="matrix" values="0 0 0 0 0.841346 0 0 0 0 0.696403 0 0 0 0 0.551459 0 0 0 1 0"/>
<feBlend mode="normal" in2="BackgroundImageFix" result="effect1_dropShadow_234_4130"/>
<feBlend mode="normal" in="SourceGraphic" in2="effect1_dropShadow_234_4130" result="shape"/>
</filter>
<linearGradient id="paint0_linear_234_4130" x1="283.997" y1="431.319" x2="227.397" y2="401.557" gradientUnits="userSpaceOnUse">
<stop stop-color="#FFFDFC"/>
<stop offset="1" stop-color="#F5ECE5"/>
</linearGradient>
<linearGradient id="paint1_linear_234_4130" x1="136.201" y1="407.024" x2="188.057" y2="406.902" gradientUnits="userSpaceOnUse">
<stop stop-color="#FFFDFC"/>
<stop offset="1" stop-color="#F5ECE5"/>
</linearGradient>
<linearGradient id="paint2_linear_234_4130" x1="218.175" y1="384.691" x2="213.068" y2="431.293" gradientUnits="userSpaceOnUse">
<stop stop-color="#EDE3DC"/>
<stop offset="1" stop-color="#FFF7F1"/>
</linearGradient>
<linearGradient id="paint3_linear_234_4130" x1="229.705" y1="285.973" x2="229.705" y2="381.649" gradientUnits="userSpaceOnUse">
<stop stop-color="#FFF5EC"/>
<stop offset="1" stop-color="white"/>
</linearGradient>
<linearGradient id="paint4_linear_234_4130" x1="195.49" y1="328.736" x2="195.49" y2="358.949" gradientUnits="userSpaceOnUse">
<stop stop-color="#797979"/>
<stop offset="1" stop-color="#444444"/>
</linearGradient>
<linearGradient id="paint5_linear_234_4130" x1="244.921" y1="338.339" x2="244.921" y2="368.552" gradientUnits="userSpaceOnUse">
<stop stop-color="#797979"/>
<stop offset="1" stop-color="#444444"/>
</linearGradient>
<radialGradient id="paint6_radial_234_4130" cx="0" cy="0" r="1" gradientUnits="userSpaceOnUse" gradientTransform="translate(162.121 360.27) rotate(90) scale(18.128 30.2134)">
<stop stop-color="#FFDEC2"/>
<stop offset="1" stop-color="#FFDEC2" stop-opacity="0"/>
</radialGradient>
<radialGradient id="paint7_radial_234_4130" cx="0" cy="0" r="1" gradientUnits="userSpaceOnUse" gradientTransform="translate(263.986 382.371) rotate(90) scale(18.128 30.2134)">
<stop stop-color="#FFDEC2"/>
<stop offset="1" stop-color="#FFDEC2" stop-opacity="0"/>
</radialGradient>
<linearGradient id="paint8_linear_234_4130" x1="132.241" y1="403.225" x2="109.279" y2="366.392" gradientUnits="userSpaceOnUse">
<stop stop-color="#F8ECE3"/>
<stop offset="1" stop-color="#FFF7F1"/>
</linearGradient>
<linearGradient id="paint9_linear_234_4130" x1="300.553" y1="438.667" x2="276.224" y2="370.542" gradientUnits="userSpaceOnUse">
<stop stop-color="#B66D31"/>
<stop offset="1" stop-color="#F56E00"/>
</linearGradient>
<clipPath id="clip0_234_4130">
<rect width="394" height="466" fill="white"/>
</clipPath>
</defs>
</svg>
