<svg width="394" height="466" viewBox="0 0 394 466" fill="none" xmlns="http://www.w3.org/2000/svg">
<g clip-path="url(#clip0_234_4095)">
<rect width="394" height="466" fill="white"/>
<circle cx="198" cy="335" r="131" fill="#FFE3C8"/>
<path d="M65.1094 204.683C39.0244 224.844 71.9173 341.526 91.6243 397.347C96.7694 428.781 108.521 467.614 113.753 483.1C170.834 555.875 163.757 454.766 153.084 395.114C123.296 203.269 82.0228 188.225 65.1094 204.683Z" fill="url(#paint0_linear_234_4095)"/>
<path opacity="0.34" d="M99.0658 263.989C100.934 260.319 111.976 256.682 117.263 255.323C119.044 258.427 121.902 264.56 119.089 264.262C116.276 263.964 112.018 267.021 110.24 268.586C105.425 273.765 103.426 273.837 96.9851 275.573C91.8321 276.961 87.9879 280.402 86.71 281.95C73.8275 285.42 83.9755 275.545 88.3455 271.884C92.7154 268.223 96.7309 268.577 99.0658 263.989Z" fill="white"/>
<path opacity="0.34" d="M86.1294 238.442C87.9973 234.772 99.0392 231.135 104.327 229.776C106.107 232.88 108.965 239.013 106.152 238.715C103.34 238.417 99.0813 241.474 97.3037 243.04C92.4886 248.218 90.4899 248.291 84.0487 250.026C78.8957 251.414 75.0515 254.856 73.7736 256.403C60.8911 259.873 71.0391 249.998 75.4091 246.337C79.779 242.676 83.7945 243.03 86.1294 238.442Z" fill="white"/>
<path opacity="0.34" d="M114.236 323.478C116.104 319.807 127.146 316.171 132.434 314.811C134.214 317.915 137.072 324.049 134.259 323.751C131.447 323.452 127.188 326.509 125.411 328.075C120.596 333.253 118.597 333.326 112.156 335.061C107.003 336.449 103.159 339.891 101.881 341.438C88.9981 344.908 99.1461 335.033 103.516 331.372C107.886 327.711 111.901 328.065 114.236 323.478Z" fill="white"/>
<path opacity="0.34" d="M111.939 295.491C115.388 295.325 123.942 287.138 127.787 283.065C126.748 280.272 124.326 275.328 122.949 277.902C121.573 280.477 117.19 282.974 115.171 283.9C109.087 286.036 107.922 287.752 103.186 292.682C99.3963 296.626 94.9926 298.608 93.2644 299.106C83.7913 308.966 95.9336 304.05 100.775 301.697C105.616 299.344 107.628 295.697 111.939 295.491Z" fill="white"/>
<path d="M226.817 280.53L239.525 343.193C240.092 345.99 242.551 348 245.405 348H250.202C254.14 348 257.011 344.269 256.001 340.462L241.7 286.526C240.995 283.866 242.189 281.067 244.598 279.736L305.825 245.911C309.062 244.123 309.926 239.861 307.641 236.953L304.365 232.783C302.456 230.353 299.015 229.771 296.413 231.436L229.463 274.284C227.376 275.619 226.325 278.101 226.817 280.53Z" fill="url(#paint1_linear_234_4095)"/>
<g filter="url(#filter0_d_234_4095)">
<path d="M134.956 241.044C99.5082 251.82 109.374 367.858 118.737 424.53C117.049 454.705 121.273 493.558 123.596 509.212C172.513 592.259 189.021 497.962 191.161 440.433C203.352 256.739 158.771 230.968 134.956 241.044Z" fill="url(#paint2_linear_234_4095)"/>
<path opacity="0.34" d="M160.13 305.054C163.214 302.251 177.019 302.157 183.536 302.46C184.858 305.812 186.696 312.241 183.48 311.148C180.264 310.055 174.534 311.6 172.071 312.509C165.171 315.828 162.816 315.31 154.857 315.013C148.491 314.775 143.151 316.792 141.277 317.831C125.361 317.236 139.649 311.19 145.658 309.126C151.666 307.062 156.275 308.558 160.13 305.054Z" fill="white"/>
<path opacity="0.34" d="M151.263 277.974C154.348 275.172 168.153 275.077 174.669 275.381C175.991 278.732 177.83 285.161 174.613 284.068C171.397 282.975 165.667 284.52 163.205 285.43C156.304 288.748 153.949 288.231 145.991 287.933C139.624 287.695 134.285 289.713 132.411 290.751C116.494 290.156 130.783 284.11 136.791 282.046C142.799 279.982 147.408 281.478 151.263 277.974Z" fill="white"/>
<path opacity="0.34" d="M163.29 363.747C166.374 360.944 180.179 360.85 186.696 361.153C188.017 364.505 189.856 370.934 186.64 369.841C183.423 368.748 177.694 370.293 175.231 371.202C168.331 374.52 165.975 374.003 158.017 373.706C151.65 373.468 146.311 375.485 144.437 376.524C128.521 375.929 142.809 369.883 148.817 367.819C154.825 365.755 159.435 367.25 163.29 363.747Z" fill="white"/>
<path opacity="0.34" d="M167.463 337.547C171.537 338.403 183.548 333.431 189.044 330.839C188.513 327.987 186.892 322.77 184.651 324.717C182.41 326.663 176.673 327.662 174.084 327.918C166.445 328.09 164.662 329.315 157.914 332.43C152.516 334.922 146.88 335.444 144.737 335.393C131.241 341.623 146.647 340.683 152.885 339.949C159.124 339.216 162.371 336.477 167.463 337.547Z" fill="white"/>
</g>
<g filter="url(#filter1_d_234_4095)">
<path d="M132.614 258.38C154.306 260.127 227.903 342.739 261.99 383.827C267.965 390.958 279.599 411.546 284.669 420.948C278.648 422.283 265.176 421.842 259.451 409.402C253.726 396.962 204.849 344.325 181.126 319.561C176.22 317.285 151.356 317.827 148.512 316.049C146.237 314.627 145.669 307.24 145.669 303.724C151.415 301.62 165.792 303.734 172.263 305.054C170.216 297.867 141.422 276.631 127.28 266.912C127.907 259.498 131.097 258.134 132.614 258.38Z" fill="url(#paint3_linear_234_4095)"/>
</g>
<g filter="url(#filter2_d_234_4095)">
<path d="M176.831 262.847C167.355 279.84 193.523 358.743 207.791 396.07C210.238 402.592 220.1 417.151 224.725 423.615C228.738 419.403 235.113 409.027 228.505 401.223C221.896 393.42 206.211 341.636 199.195 316.72C199.908 312.355 212.704 293.582 212.768 290.925C212.82 288.799 207.485 286.32 204.811 285.346C200.35 289.136 194.796 300.664 192.578 305.955C188.132 302.406 186.324 274.607 185.976 261.152C180.026 259.574 177.4 261.625 176.831 262.847Z" fill="url(#paint4_linear_234_4095)"/>
</g>
<g filter="url(#filter3_d_234_4095)">
<path d="M159.773 390.925L242.69 462.637C244.662 464.343 247.51 464.58 249.737 463.223L349.863 402.216C352.041 400.889 353.142 398.329 352.608 395.835L329.757 289.198C328.895 285.177 324.335 283.195 320.807 285.307L160.615 381.239C157.109 383.339 156.682 388.252 159.773 390.925Z" fill="url(#paint5_linear_234_4095)"/>
</g>
<path opacity="0.56" d="M208.32 385.68C207.171 386.829 206.022 387.978 204.873 389.127C205.606 390.627 206.378 392.088 207.188 393.512C210.429 399.204 214.283 404.283 218.75 408.75C234.383 424.383 250.851 439.183 268.152 453.148C269.388 454.145 270.628 455.138 271.873 456.127C273.022 454.978 274.171 453.829 275.32 452.68C274.331 451.436 273.338 450.196 272.34 448.96C258.375 431.658 243.576 415.191 227.942 399.558C223.476 395.091 218.396 391.237 212.704 387.996C211.281 387.186 209.819 386.414 208.32 385.68Z" fill="#F9A866"/>
<path opacity="0.56" d="M242.32 369.68C241.171 370.829 240.022 371.978 238.873 373.127C239.606 374.627 240.378 376.088 241.188 377.512C244.429 383.204 248.283 388.283 252.75 392.75C268.383 408.383 284.851 423.183 302.152 437.148C303.388 438.145 304.628 439.138 305.873 440.127C307.022 438.978 308.171 437.829 309.32 436.68C308.331 435.436 307.338 434.196 306.34 432.96C292.375 415.658 277.576 399.191 261.942 383.558C257.476 379.091 252.396 375.237 246.704 371.996C245.281 371.186 243.819 370.414 242.32 369.68Z" fill="#F9A866"/>
<path opacity="0.56" d="M299.168 337.372C297.683 338.031 296.198 338.691 294.713 339.351C294.859 341.014 295.054 342.655 295.299 344.274C296.28 350.751 298.052 356.875 300.616 362.648C309.591 382.854 319.645 402.58 330.776 421.827C331.571 423.202 332.372 424.574 333.178 425.944C334.663 425.285 336.148 424.625 337.633 423.965C337.157 422.449 336.675 420.935 336.188 419.423C329.369 398.26 321.472 377.576 312.497 357.371C309.933 351.598 306.576 346.177 302.428 341.108C301.391 339.84 300.304 338.595 299.168 337.372Z" fill="#F9A866"/>
<path opacity="0.9" d="M336.458 302.137C336.011 301.385 335.564 300.633 335.117 299.881C332.485 301.105 329.868 302.355 327.265 303.63C316.855 308.728 306.683 314.228 296.75 320.13C261.983 340.784 227.541 361.985 193.423 383.731C190.986 385.285 188.551 386.841 186.117 388.4C186.564 389.152 187.011 389.904 187.458 390.656C189.991 389.265 192.522 387.87 195.052 386.473C230.467 366.911 265.559 346.802 300.325 326.148C310.259 320.247 319.954 313.944 329.41 307.24C331.774 305.565 334.124 303.864 336.458 302.137Z" fill="url(#paint6_linear_234_4095)"/>
<path d="M394 571H1V357H68.8408C79.3039 418.875 133.148 466 198 466C262.852 466 316.696 418.875 327.159 357H394V571Z" fill="white"/>
<path d="M394 571H198V466C270.349 466 329 407.349 329 335C329 262.651 270.349 204 198 204V120H394V571Z" fill="white"/>
</g>
<defs>
<filter id="filter0_d_234_4095" x="98.7558" y="231.975" width="105.677" height="325.188" filterUnits="userSpaceOnUse" color-interpolation-filters="sRGB">
<feFlood flood-opacity="0" result="BackgroundImageFix"/>
<feColorMatrix in="SourceAlpha" type="matrix" values="0 0 0 0 0 0 0 0 0 0 0 0 0 0 0 0 0 0 127 0" result="hardAlpha"/>
<feOffset dy="4"/>
<feGaussianBlur stdDeviation="5.6"/>
<feComposite in2="hardAlpha" operator="out"/>
<feColorMatrix type="matrix" values="0 0 0 0 0 0 0 0 0 0 0 0 0 0 0 0 0 0 0.25 0"/>
<feBlend mode="normal" in2="BackgroundImageFix" result="effect1_dropShadow_234_4095"/>
<feBlend mode="normal" in="SourceGraphic" in2="effect1_dropShadow_234_4095" result="shape"/>
</filter>
<filter id="filter1_d_234_4095" x="123.28" y="258.353" width="165.389" height="171.11" filterUnits="userSpaceOnUse" color-interpolation-filters="sRGB">
<feFlood flood-opacity="0" result="BackgroundImageFix"/>
<feColorMatrix in="SourceAlpha" type="matrix" values="0 0 0 0 0 0 0 0 0 0 0 0 0 0 0 0 0 0 127 0" result="hardAlpha"/>
<feOffset dy="4"/>
<feGaussianBlur stdDeviation="2"/>
<feComposite in2="hardAlpha" operator="out"/>
<feColorMatrix type="matrix" values="0 0 0 0 0 0 0 0 0 0 0 0 0 0 0 0 0 0 0.25 0"/>
<feBlend mode="normal" in2="BackgroundImageFix" result="effect1_dropShadow_234_4095"/>
<feBlend mode="normal" in="SourceGraphic" in2="effect1_dropShadow_234_4095" result="shape"/>
</filter>
<filter id="filter2_d_234_4095" x="170.812" y="260.579" width="64.5527" height="171.036" filterUnits="userSpaceOnUse" color-interpolation-filters="sRGB">
<feFlood flood-opacity="0" result="BackgroundImageFix"/>
<feColorMatrix in="SourceAlpha" type="matrix" values="0 0 0 0 0 0 0 0 0 0 0 0 0 0 0 0 0 0 127 0" result="hardAlpha"/>
<feOffset dy="4"/>
<feGaussianBlur stdDeviation="2"/>
<feComposite in2="hardAlpha" operator="out"/>
<feColorMatrix type="matrix" values="0 0 0 0 0 0 0 0 0 0 0 0 0 0 0 0 0 0 0.25 0"/>
<feBlend mode="normal" in2="BackgroundImageFix" result="effect1_dropShadow_234_4095"/>
<feBlend mode="normal" in="SourceGraphic" in2="effect1_dropShadow_234_4095" result="shape"/>
</filter>
<filter id="filter3_d_234_4095" x="153.697" y="284.451" width="203.044" height="187.649" filterUnits="userSpaceOnUse" color-interpolation-filters="sRGB">
<feFlood flood-opacity="0" result="BackgroundImageFix"/>
<feColorMatrix in="SourceAlpha" type="matrix" values="0 0 0 0 0 0 0 0 0 0 0 0 0 0 0 0 0 0 127 0" result="hardAlpha"/>
<feOffset dy="4"/>
<feGaussianBlur stdDeviation="2"/>
<feComposite in2="hardAlpha" operator="out"/>
<feColorMatrix type="matrix" values="0 0 0 0 0 0 0 0 0 0 0 0 0 0 0 0 0 0 0.25 0"/>
<feBlend mode="normal" in2="BackgroundImageFix" result="effect1_dropShadow_234_4095"/>
<feBlend mode="normal" in="SourceGraphic" in2="effect1_dropShadow_234_4095" result="shape"/>
</filter>
<linearGradient id="paint0_linear_234_4095" x1="93.0902" y1="333.719" x2="165.024" y2="283.106" gradientUnits="userSpaceOnUse">
<stop stop-color="#B99376"/>
<stop offset="1" stop-color="#FFB53D"/>
</linearGradient>
<linearGradient id="paint1_linear_234_4095" x1="269" y1="228.5" x2="244" y2="365.5" gradientUnits="userSpaceOnUse">
<stop stop-color="#F56E00"/>
<stop offset="1" stop-color="#F15D38"/>
</linearGradient>
<linearGradient id="paint2_linear_234_4095" x1="136.049" y1="366.916" x2="222.492" y2="322.23" gradientUnits="userSpaceOnUse">
<stop stop-color="#B99376"/>
<stop offset="1" stop-color="#FFB53D"/>
</linearGradient>
<linearGradient id="paint3_linear_234_4095" x1="144.673" y1="250.296" x2="258.646" y2="436.847" gradientUnits="userSpaceOnUse">
<stop stop-color="#D8E186"/>
<stop offset="0.173094" stop-color="#57C37D"/>
<stop offset="1" stop-color="#2A5D3C"/>
</linearGradient>
<linearGradient id="paint4_linear_234_4095" x1="164.678" y1="269.785" x2="249.776" y2="408.215" gradientUnits="userSpaceOnUse">
<stop stop-color="#D8E186"/>
<stop offset="0.173094" stop-color="#57C37D"/>
<stop offset="1" stop-color="#2A5D3C"/>
</linearGradient>
<linearGradient id="paint5_linear_234_4095" x1="236" y1="354.5" x2="253.5" y2="465.5" gradientUnits="userSpaceOnUse">
<stop stop-color="#F56E00"/>
<stop offset="1" stop-color="#FF8D30"/>
</linearGradient>
<linearGradient id="paint6_linear_234_4095" x1="277.158" y1="360.758" x2="260.031" y2="329.322" gradientUnits="userSpaceOnUse">
<stop stop-color="#F9A866"/>
<stop offset="1" stop-color="#F46E00"/>
</linearGradient>
<clipPath id="clip0_234_4095">
<rect width="394" height="466" fill="white"/>
</clipPath>
</defs>
</svg>
