<svg width="296" height="280" viewBox="0 0 296 280" fill="none" xmlns="http://www.w3.org/2000/svg">
<g clip-path="url(#clip0_563_5040)">
<rect width="296" height="280" fill="white"/>
<circle cx="148" cy="149" r="131" fill="#FFE3C8"/>
<g filter="url(#filter0_d_563_5040)">
<path d="M199.97 240.59C206.908 248.672 229.234 257.825 239.53 261.392L248.793 260.027C243.888 248.672 252.807 234.862 246.599 236.032C240.39 237.201 201.792 218.277 195.681 209.999L190.786 222.597C190.957 225.227 193.033 232.508 199.97 240.59Z" fill="url(#paint0_linear_563_5040)"/>
</g>
<g filter="url(#filter1_d_563_5040)">
<path d="M112.435 232.614C104.415 236.557 84.9309 234.314 76.1914 232.699L70.0448 227.195C77.8329 219.409 94.4149 204.816 98.4389 208.731C102.463 212.646 119.5 212 127 207.5L125.79 220.931C124.68 223.182 120.455 228.67 112.435 232.614Z" fill="url(#paint1_linear_563_5040)"/>
</g>
<g filter="url(#filter2_d_563_5040)">
<path d="M133.465 200.056L170.873 199.012L188.027 201.056C201.179 222.788 224.646 269.215 213.293 281.062C199.102 295.87 97.3307 294.745 103.012 267.924C107.556 246.466 122.757 213.446 133.465 200.056Z" fill="url(#paint2_linear_563_5040)"/>
</g>
<g filter="url(#filter3_d_563_5040)">
<path d="M126.767 227L131.267 192H145.767L141.767 227C147.767 223 169.267 225.333 179.267 227L175.767 192L184.767 189L190.767 204.5L194.267 227C210.267 220.6 221.267 261 224.767 282L103.267 286C96.8669 241.6 116.267 228.167 126.767 227Z" fill="#E7B082"/>
</g>
<g filter="url(#filter4_d_563_5040)">
<rect x="109.207" y="99.9727" width="140.996" height="95.6756" rx="16.2" transform="rotate(11.1763 109.207 99.9727)" fill="url(#paint3_linear_563_5040)"/>
</g>
<g filter="url(#filter5_d_563_5040)">
<path fill-rule="evenodd" clip-rule="evenodd" d="M143.243 75.8454L126.297 112.737C144.49 122.011 191.036 138.489 231.678 130.214L229.666 103.172C250.136 105.243 289.885 93.7092 274.73 57.1692C259.575 20.6293 216.921 4.11869 196.423 5.19634C188.661 5.60437 181.293 10.109 173.849 9.64953C161.634 8.89552 148.809 3.84563 140.836 7.27413C128.005 12.7918 118.497 20.4885 118.497 20.4885C105.769 38.47 92.9004 74.7154 143.243 75.8454Z" fill="white"/>
</g>
<rect x="137.936" y="142.736" width="15.1067" height="30.2134" rx="7.55334" transform="rotate(10.9956 137.936 142.736)" fill="url(#paint4_linear_563_5040)"/>
<rect x="187.367" y="152.338" width="15.1067" height="30.2134" rx="7.55334" transform="rotate(10.9956 187.367 152.338)" fill="url(#paint5_linear_563_5040)"/>
<ellipse cx="139.99" cy="170.377" rx="5.03556" ry="2.51778" transform="rotate(16.7075 139.99 170.377)" fill="#E4E4E4"/>
<ellipse cx="189.467" cy="180.321" rx="5.03556" ry="2.51778" transform="rotate(13.3138 189.467 180.321)" fill="#E4E4E4"/>
<ellipse cx="112.121" cy="174.27" rx="50.3556" ry="30.2134" transform="rotate(17.5466 112.121 174.27)" fill="url(#paint6_radial_563_5040)" fill-opacity="0.32"/>
<ellipse cx="213.986" cy="196.37" rx="50.3556" ry="30.2134" transform="rotate(11.0923 213.986 196.37)" fill="url(#paint7_radial_563_5040)" fill-opacity="0.32"/>
<path d="M143.243 75.8449C92.9004 74.7144 105.769 38.4696 118.496 20.4885L126.219 15.2502C136.751 9.77827 143.369 4.04287 129.616 18.7233C107.369 42.471 139.46 54.4036 157.276 56.5162C166.667 86.948 201.117 76.5399 217.169 67.5318C225.853 93.5154 260.209 87.3025 276.302 80.9481C269.622 102.074 242.428 104.566 229.666 103.171C220.063 100.135 213.873 94.6567 211.979 92.2972C174.472 97.338 157.941 82.2525 154.363 74.0797L143.243 75.8449Z" fill="#F6F1EC"/>
<path d="M153.975 100.364L162.448 81.9182L163.207 79.5176L215.898 88.256C213.864 121.413 210.072 123.383 208.43 120.223C204.589 119.009 208.101 98.9941 210.337 89.1385L196.816 90.1445C187.806 125.321 182.188 122.488 180.505 116.675C178.585 116.068 184.177 96.7108 187.213 87.1082L174.451 85.7136C150.882 126.849 150.98 112.62 153.975 100.364Z" fill="#F6F1EC" fill-opacity="0.63"/>
<path d="M129.328 226.452L133.254 194.655C133.531 192.412 135.656 190.878 137.872 191.321C139.807 191.708 141.145 193.476 140.985 195.443C139.777 210.279 137.897 234.37 138.267 234C138.595 233.672 139.843 232.872 140.741 232.32C141.089 232.105 141.404 231.846 141.729 231.598C147.778 226.986 171.361 230.222 182.728 232.492C182.755 232.498 182.781 232.5 182.808 232.5C183.053 232.5 183.245 232.288 183.219 232.043L180.1 202.187C179.936 200.62 181.357 199.353 182.894 199.695C183.737 199.882 184.864 199.775 185.313 200.512C187.346 203.853 190.517 218.761 192.511 229.375C192.838 231.115 195.496 232.5 197.267 232.5C207.346 232.127 216.468 263.662 220.485 282.639C220.963 284.899 219.773 287.164 217.663 288.102C217.071 288.365 216.434 288.509 215.787 288.528L113.078 291.435C111.612 291.476 110.201 290.872 109.22 289.781L107.367 287.723C106.653 286.929 106.206 285.901 106.113 284.837C102.864 247.505 114.915 234.461 124.253 231.627C126.734 230.874 129.011 229.026 129.328 226.452Z" stroke="white" stroke-opacity="0.26" stroke-width="3" stroke-dasharray="5 5"/>
<g filter="url(#filter6_d_563_5040)">
<path d="M52.1751 191.728C75.3544 153.956 98.094 181.003 106.566 199.247C111.5 217.13 89.8048 229.614 78.3406 233.62C32.7343 224.253 41.8943 201.789 52.1751 191.728Z" fill="url(#paint8_linear_563_5040)"/>
<rect width="28.0767" height="16.2493" rx="8.12463" transform="matrix(-0.186872 0.982384 0.966008 0.258511 92.9309 168.926)" fill="#FFF7F1"/>
<rect width="35.5109" height="15.6928" rx="7.8464" transform="matrix(0.398469 0.917182 0.905385 -0.424593 56.8354 159.367)" fill="#FFF7F1"/>
<rect width="33.637" height="15.6928" rx="7.8464" transform="matrix(0.595564 0.803308 0.785909 -0.618342 36.2162 174.135)" fill="#FFF7F1"/>
<rect width="34.519" height="15.6928" rx="7.8464" transform="matrix(0.677562 0.735466 0.715745 -0.698362 30.1981 199.889)" fill="#FFF7F1"/>
</g>
<path d="M82.7242 45.2246C84.4607 49.7666 92.3179 81.3561 87.7759 83.0926C83.2339 84.8291 68.0126 56.0551 66.2761 51.5131C64.5396 46.9711 66.8139 41.8813 71.3559 40.1448C75.8979 38.4083 80.9877 40.6826 82.7242 45.2246Z" fill="#FFB579"/>
<path d="M40.013 59.0142C43.7749 62.0953 66.2753 85.6189 63.1942 89.3809C60.1131 93.1428 32.6172 75.7185 28.8553 72.6374C25.0934 69.5563 24.5414 64.0089 27.6225 60.247C30.7036 56.485 36.251 55.9331 40.013 59.0142Z" fill="#FF953E"/>
<path d="M23.7967 106.663C28.655 106.457 61.1053 109.028 61.311 113.887C61.5168 118.745 29.4001 124.051 24.5418 124.256C19.6835 124.462 15.5783 120.69 15.3725 115.832C15.1668 110.974 18.9384 106.869 23.7967 106.663Z" fill="#FF9239"/>
<path d="M274.867 217.362C265.968 222.698 235.397 219.863 221.225 217.778L194.947 288.215C189.61 291.768 185.261 288.29 183.754 286.107L214.451 209.051C223.228 187.913 244.828 186.867 254.53 188.987C277.816 194.074 277.791 210.023 274.867 217.362Z" fill="url(#paint9_linear_563_5040)"/>
<path d="M18.8408 171C29.3039 232.875 83.1479 280 148 280C188.849 280 225.328 261.302 249.353 232H344V385H-49V171H18.8408Z" fill="white"/>
</g>
<defs>
<filter id="filter0_d_563_5040" x="187.386" y="208.6" width="64.905" height="58.1906" filterUnits="userSpaceOnUse" color-interpolation-filters="sRGB">
<feFlood flood-opacity="0" result="BackgroundImageFix"/>
<feColorMatrix in="SourceAlpha" type="matrix" values="0 0 0 0 0 0 0 0 0 0 0 0 0 0 0 0 0 0 127 0" result="hardAlpha"/>
<feOffset dy="2"/>
<feGaussianBlur stdDeviation="1.7"/>
<feComposite in2="hardAlpha" operator="out"/>
<feColorMatrix type="matrix" values="0 0 0 0 0.752316 0 0 0 0 0.639227 0 0 0 0 0.546699 0 0 0 1 0"/>
<feBlend mode="normal" in2="BackgroundImageFix" result="effect1_dropShadow_563_5040"/>
<feBlend mode="normal" in="SourceGraphic" in2="effect1_dropShadow_563_5040" result="shape"/>
</filter>
<filter id="filter1_d_563_5040" x="66.6448" y="206.1" width="63.7552" height="34.1145" filterUnits="userSpaceOnUse" color-interpolation-filters="sRGB">
<feFlood flood-opacity="0" result="BackgroundImageFix"/>
<feColorMatrix in="SourceAlpha" type="matrix" values="0 0 0 0 0 0 0 0 0 0 0 0 0 0 0 0 0 0 127 0" result="hardAlpha"/>
<feOffset dy="2"/>
<feGaussianBlur stdDeviation="1.7"/>
<feComposite in2="hardAlpha" operator="out"/>
<feColorMatrix type="matrix" values="0 0 0 0 0.752316 0 0 0 0 0.639227 0 0 0 0 0.546699 0 0 0 0.58 0"/>
<feBlend mode="normal" in2="BackgroundImageFix" result="effect1_dropShadow_563_5040"/>
<feBlend mode="normal" in="SourceGraphic" in2="effect1_dropShadow_563_5040" result="shape"/>
</filter>
<filter id="filter2_d_563_5040" x="97.6825" y="193.912" width="123.722" height="101.757" filterUnits="userSpaceOnUse" color-interpolation-filters="sRGB">
<feFlood flood-opacity="0" result="BackgroundImageFix"/>
<feColorMatrix in="SourceAlpha" type="matrix" values="0 0 0 0 0 0 0 0 0 0 0 0 0 0 0 0 0 0 127 0" result="hardAlpha"/>
<feOffset/>
<feGaussianBlur stdDeviation="2.55"/>
<feComposite in2="hardAlpha" operator="out"/>
<feColorMatrix type="matrix" values="0 0 0 0 0.799679 0 0 0 0 0.652943 0 0 0 0 0.506207 0 0 0 1 0"/>
<feBlend mode="normal" in2="BackgroundImageFix" result="effect1_dropShadow_563_5040"/>
<feBlend mode="normal" in="SourceGraphic" in2="effect1_dropShadow_563_5040" result="shape"/>
</filter>
<filter id="filter3_d_563_5040" x="98" y="189" width="130.767" height="105" filterUnits="userSpaceOnUse" color-interpolation-filters="sRGB">
<feFlood flood-opacity="0" result="BackgroundImageFix"/>
<feColorMatrix in="SourceAlpha" type="matrix" values="0 0 0 0 0 0 0 0 0 0 0 0 0 0 0 0 0 0 127 0" result="hardAlpha"/>
<feOffset dy="4"/>
<feGaussianBlur stdDeviation="2"/>
<feComposite in2="hardAlpha" operator="out"/>
<feColorMatrix type="matrix" values="0 0 0 0 0 0 0 0 0 0 0 0 0 0 0 0 0 0 0.25 0"/>
<feBlend mode="normal" in2="BackgroundImageFix" result="effect1_dropShadow_563_5040"/>
<feBlend mode="normal" in="SourceGraphic" in2="effect1_dropShadow_563_5040" result="shape"/>
</filter>
<filter id="filter4_d_563_5040" x="89.4924" y="100.803" width="159.207" height="123.531" filterUnits="userSpaceOnUse" color-interpolation-filters="sRGB">
<feFlood flood-opacity="0" result="BackgroundImageFix"/>
<feColorMatrix in="SourceAlpha" type="matrix" values="0 0 0 0 0 0 0 0 0 0 0 0 0 0 0 0 0 0 127 0" result="hardAlpha"/>
<feOffset dy="2"/>
<feGaussianBlur stdDeviation="2"/>
<feComposite in2="hardAlpha" operator="out"/>
<feColorMatrix type="matrix" values="0 0 0 0 0.777244 0 0 0 0 0.681956 0 0 0 0 0.586669 0 0 0 0.67 0"/>
<feBlend mode="normal" in2="BackgroundImageFix" result="effect1_dropShadow_563_5040"/>
<feBlend mode="normal" in="SourceGraphic" in2="effect1_dropShadow_563_5040" result="shape"/>
</filter>
<filter id="filter5_d_563_5040" x="101.002" y="-1.85352" width="183.094" height="139.322" filterUnits="userSpaceOnUse" color-interpolation-filters="sRGB">
<feFlood flood-opacity="0" result="BackgroundImageFix"/>
<feColorMatrix in="SourceAlpha" type="matrix" values="0 0 0 0 0 0 0 0 0 0 0 0 0 0 0 0 0 0 127 0" result="hardAlpha"/>
<feOffset dy="-1"/>
<feGaussianBlur stdDeviation="3"/>
<feComposite in2="hardAlpha" operator="out"/>
<feColorMatrix type="matrix" values="0 0 0 0 0.636218 0 0 0 0 0.528193 0 0 0 0 0.470026 0 0 0 0.25 0"/>
<feBlend mode="normal" in2="BackgroundImageFix" result="effect1_dropShadow_563_5040"/>
<feBlend mode="normal" in="SourceGraphic" in2="effect1_dropShadow_563_5040" result="shape"/>
</filter>
<filter id="filter6_d_563_5040" x="28.6141" y="150.518" width="83.4535" height="87.8847" filterUnits="userSpaceOnUse" color-interpolation-filters="sRGB">
<feFlood flood-opacity="0" result="BackgroundImageFix"/>
<feColorMatrix in="SourceAlpha" type="matrix" values="0 0 0 0 0 0 0 0 0 0 0 0 0 0 0 0 0 0 127 0" result="hardAlpha"/>
<feOffset/>
<feGaussianBlur stdDeviation="2.39158"/>
<feComposite in2="hardAlpha" operator="out"/>
<feColorMatrix type="matrix" values="0 0 0 0 0.841346 0 0 0 0 0.696403 0 0 0 0 0.551459 0 0 0 1 0"/>
<feBlend mode="normal" in2="BackgroundImageFix" result="effect1_dropShadow_563_5040"/>
<feBlend mode="normal" in="SourceGraphic" in2="effect1_dropShadow_563_5040" result="shape"/>
</filter>
<linearGradient id="paint0_linear_563_5040" x1="233.998" y1="245.318" x2="177.397" y2="215.556" gradientUnits="userSpaceOnUse">
<stop stop-color="#FFFDFC"/>
<stop offset="1" stop-color="#F5ECE5"/>
</linearGradient>
<linearGradient id="paint1_linear_563_5040" x1="86.2006" y1="221.024" x2="138.057" y2="220.902" gradientUnits="userSpaceOnUse">
<stop stop-color="#FFFDFC"/>
<stop offset="1" stop-color="#F5ECE5"/>
</linearGradient>
<linearGradient id="paint2_linear_563_5040" x1="168.175" y1="198.691" x2="163.068" y2="245.293" gradientUnits="userSpaceOnUse">
<stop stop-color="#EDE3DC"/>
<stop offset="1" stop-color="#FFF7F1"/>
</linearGradient>
<linearGradient id="paint3_linear_563_5040" x1="179.705" y1="99.9727" x2="179.705" y2="195.648" gradientUnits="userSpaceOnUse">
<stop stop-color="#FFF5EC"/>
<stop offset="1" stop-color="white"/>
</linearGradient>
<linearGradient id="paint4_linear_563_5040" x1="145.49" y1="142.736" x2="145.49" y2="172.95" gradientUnits="userSpaceOnUse">
<stop stop-color="#797979"/>
<stop offset="1" stop-color="#444444"/>
</linearGradient>
<linearGradient id="paint5_linear_563_5040" x1="194.921" y1="152.338" x2="194.921" y2="182.551" gradientUnits="userSpaceOnUse">
<stop stop-color="#797979"/>
<stop offset="1" stop-color="#444444"/>
</linearGradient>
<radialGradient id="paint6_radial_563_5040" cx="0" cy="0" r="1" gradientUnits="userSpaceOnUse" gradientTransform="translate(112.121 174.27) rotate(90) scale(18.128 30.2134)">
<stop stop-color="#FFDEC2"/>
<stop offset="1" stop-color="#FFDEC2" stop-opacity="0"/>
</radialGradient>
<radialGradient id="paint7_radial_563_5040" cx="0" cy="0" r="1" gradientUnits="userSpaceOnUse" gradientTransform="translate(213.986 196.37) rotate(90) scale(18.128 30.2134)">
<stop stop-color="#FFDEC2"/>
<stop offset="1" stop-color="#FFDEC2" stop-opacity="0"/>
</radialGradient>
<linearGradient id="paint8_linear_563_5040" x1="82.241" y1="217.226" x2="59.2793" y2="180.392" gradientUnits="userSpaceOnUse">
<stop stop-color="#F8ECE3"/>
<stop offset="1" stop-color="#FFF7F1"/>
</linearGradient>
<linearGradient id="paint9_linear_563_5040" x1="250.553" y1="252.667" x2="226.224" y2="184.543" gradientUnits="userSpaceOnUse">
<stop stop-color="#B66D31"/>
<stop offset="1" stop-color="#F56E00"/>
</linearGradient>
<clipPath id="clip0_563_5040">
<rect width="296" height="280" fill="white"/>
</clipPath>
</defs>
</svg>
