<svg width="296" height="280" viewBox="0 0 296 280" fill="none" xmlns="http://www.w3.org/2000/svg">
<g clip-path="url(#clip0_563_5007)">
<rect width="296" height="280" fill="white"/>
<circle cx="148" cy="149" r="131" fill="#FFE3C8"/>
<path d="M15.1094 18.6826C-10.9756 38.8433 21.9173 155.526 41.6243 211.347C46.7694 242.78 58.5208 281.613 63.7534 297.1C120.834 369.875 113.757 268.765 103.084 209.113C73.2964 17.2684 32.0228 2.22414 15.1094 18.6826Z" fill="url(#paint0_linear_563_5007)"/>
<path opacity="0.34" d="M49.0659 77.9878C50.9338 74.3176 61.9757 70.6808 67.2631 69.3212C69.0437 72.4253 71.9016 78.5588 69.0889 78.2608C66.2762 77.9628 62.0178 81.0194 60.2401 82.585C55.425 87.7633 53.4264 87.836 46.9851 89.5711C41.8321 90.9591 37.988 94.401 36.71 95.9484C23.8276 99.4186 33.9756 89.5435 38.3455 85.8824C42.7154 82.2213 46.731 82.5757 49.0659 77.9878Z" fill="white"/>
<path opacity="0.34" d="M36.1295 52.441C37.9974 48.7707 49.0393 45.1339 54.3267 43.7743C56.1073 46.8784 58.9652 53.012 56.1525 52.7139C53.3398 52.4159 49.0814 55.4726 47.3037 57.0382C42.4886 62.2165 40.49 62.2891 34.0487 64.0242C28.8957 65.4122 25.0516 68.8541 23.7736 70.4016C10.8912 73.8717 21.0392 63.9967 25.4091 60.3355C29.779 56.6744 33.7946 57.0288 36.1295 52.441Z" fill="white"/>
<path opacity="0.34" d="M64.2364 137.476C66.1043 133.806 77.1462 130.169 82.4336 128.809C84.2142 131.914 87.0721 138.047 84.2595 137.749C81.4468 137.451 77.1883 140.508 75.4107 142.073C70.5956 147.252 68.5969 147.324 62.1557 149.059C57.0027 150.447 53.1585 153.889 51.8806 155.437C38.9981 158.907 49.1461 149.032 53.5161 145.371C57.886 141.71 61.9015 142.064 64.2364 137.476Z" fill="white"/>
<path opacity="0.34" d="M61.939 109.491C65.3881 109.326 73.9417 101.138 77.7874 97.0655C76.7482 94.2718 74.3258 89.3281 72.9493 91.9024C71.5729 94.4768 67.1901 96.9739 65.1707 97.9006C59.0865 100.037 57.922 101.752 53.1855 106.683C49.3963 110.627 44.9926 112.608 43.2644 113.106C33.7913 122.966 45.9336 118.05 50.7748 115.697C55.616 113.344 57.6277 109.697 61.939 109.491Z" fill="white"/>
<path d="M176.817 94.5297L189.525 157.193C190.092 159.99 192.551 162 195.405 162H200.202C204.14 162 207.011 158.269 206.001 154.462L191.7 100.526C190.995 97.8656 192.189 95.0667 194.598 93.736L255.825 59.9114C259.062 58.1232 259.926 53.8606 257.641 50.9527L254.365 46.7826C252.456 44.3533 249.015 43.7705 246.413 45.4359L179.463 88.2836C177.376 89.6194 176.325 92.101 176.817 94.5297Z" fill="url(#paint1_linear_563_5007)"/>
<g filter="url(#filter0_d_563_5007)">
<path d="M84.9564 55.044C49.5082 65.82 59.3737 181.858 68.7375 238.53C67.0492 268.706 71.2734 307.558 73.5965 323.213C122.513 406.259 139.021 311.962 141.161 254.433C153.352 70.7389 108.771 44.9678 84.9564 55.044Z" fill="url(#paint2_linear_563_5007)"/>
<path opacity="0.34" d="M110.13 119.054C113.214 116.252 127.019 116.157 133.536 116.461C134.857 119.812 136.696 126.241 133.48 125.148C130.264 124.055 124.534 125.601 122.071 126.51C115.171 129.828 112.816 129.311 104.857 129.013C98.4906 128.775 93.1512 130.793 91.2773 131.831C75.3607 131.236 89.6494 125.19 95.6575 123.126C101.666 121.062 106.275 122.558 110.13 119.054Z" fill="white"/>
<path opacity="0.34" d="M101.263 91.9743C104.348 89.1716 118.153 89.0774 124.669 89.3806C125.991 92.7318 127.83 99.161 124.613 98.0681C121.397 96.9752 115.667 98.5204 113.205 99.4297C106.304 102.748 103.949 102.231 95.9906 101.933C89.624 101.695 84.2846 103.713 82.4107 104.751C66.4941 104.156 80.7829 98.1104 86.7909 96.0464C92.7989 93.9823 97.4082 95.4777 101.263 91.9743Z" fill="white"/>
<path opacity="0.34" d="M113.29 177.748C116.374 174.945 130.179 174.851 136.696 175.154C138.017 178.505 139.856 184.934 136.64 183.842C133.423 182.749 127.694 184.294 125.231 185.203C118.331 188.521 115.975 188.004 108.017 187.706C101.65 187.468 96.311 189.486 94.4371 190.525C78.5205 189.93 92.8092 183.884 98.8173 181.82C104.825 179.756 109.435 181.251 113.29 177.748Z" fill="white"/>
<path opacity="0.34" d="M117.463 151.547C121.537 152.403 133.548 147.431 139.044 144.839C138.513 141.987 136.892 136.77 134.651 138.717C132.41 140.663 126.673 141.662 124.084 141.917C116.445 142.09 114.662 143.315 107.914 146.43C102.516 148.921 96.8803 149.444 94.7372 149.393C81.2414 155.622 96.6468 154.682 102.885 153.949C109.124 153.216 112.371 150.476 117.463 151.547Z" fill="white"/>
</g>
<g filter="url(#filter1_d_563_5007)">
<path d="M82.6143 72.3796C104.306 74.1267 177.903 156.739 211.99 197.827C217.965 204.958 229.599 225.546 234.669 234.948C228.648 236.283 215.176 235.842 209.451 223.402C203.726 210.962 154.849 158.325 131.126 133.561C126.22 131.285 101.356 131.827 98.5118 130.049C96.2365 128.627 95.6686 121.24 95.669 117.724C101.415 115.62 115.792 117.734 122.263 119.054C120.216 111.867 91.4215 90.6315 77.2803 80.9118C77.9069 73.4978 81.0974 72.1345 82.6143 72.3796Z" fill="url(#paint3_linear_563_5007)"/>
</g>
<g filter="url(#filter2_d_563_5007)">
<path d="M126.831 76.8473C117.355 93.8406 143.523 172.743 157.791 210.07C160.238 216.593 170.1 231.151 174.725 237.615C178.738 233.403 185.113 223.027 178.505 215.224C171.896 207.42 156.211 155.636 149.195 130.72C149.908 126.355 162.704 107.582 162.768 104.925C162.82 102.8 157.485 100.32 154.811 99.3466C150.35 103.136 144.796 114.665 142.578 119.955C138.132 116.406 136.324 88.6074 135.976 75.1518C130.026 73.5745 127.4 75.6249 126.831 76.8473Z" fill="url(#paint4_linear_563_5007)"/>
</g>
<g filter="url(#filter3_d_563_5007)">
<path d="M109.773 204.925L192.69 276.637C194.662 278.343 197.51 278.58 199.737 277.223L299.863 216.216C302.041 214.889 303.142 212.329 302.608 209.835L279.757 103.198C278.895 99.1767 274.335 97.1946 270.807 99.3074L110.615 195.239C107.109 197.339 106.682 202.252 109.773 204.925Z" fill="url(#paint5_linear_563_5007)"/>
</g>
<path opacity="0.56" d="M158.32 199.68C157.171 200.829 156.022 201.978 154.873 203.127C155.606 204.627 156.378 206.088 157.188 207.512C160.429 213.204 164.283 218.283 168.75 222.75C184.383 238.383 200.851 253.183 218.152 267.148C219.388 268.145 220.628 269.138 221.873 270.127C223.022 268.978 224.171 267.829 225.32 266.68C224.331 265.436 223.338 264.196 222.34 262.96C208.375 245.658 193.576 229.191 177.942 213.558C173.476 209.091 168.396 205.237 162.704 201.996C161.281 201.186 159.819 200.414 158.32 199.68Z" fill="#F9A866"/>
<path opacity="0.56" d="M192.32 183.68C191.171 184.829 190.022 185.978 188.873 187.127C189.606 188.627 190.378 190.088 191.188 191.512C194.429 197.204 198.283 202.283 202.75 206.75C218.383 222.383 234.851 237.183 252.152 251.148C253.388 252.145 254.628 253.138 255.873 254.127C257.022 252.978 258.171 251.829 259.32 250.68C258.331 249.436 257.338 248.196 256.34 246.96C242.375 229.658 227.576 213.191 211.942 197.558C207.476 193.091 202.396 189.237 196.704 185.996C195.281 185.186 193.819 184.414 192.32 183.68Z" fill="#F9A866"/>
<path opacity="0.56" d="M249.168 151.372C247.683 152.031 246.198 152.691 244.713 153.351C244.859 155.014 245.054 156.655 245.299 158.274C246.28 164.751 248.052 170.875 250.616 176.648C259.591 196.854 269.645 216.58 280.776 235.827C281.571 237.202 282.372 238.574 283.178 239.944C284.663 239.285 286.148 238.625 287.633 237.965C287.157 236.449 286.675 234.935 286.188 233.423C279.369 212.26 271.472 191.576 262.497 171.371C259.933 165.598 256.576 160.177 252.428 155.108C251.391 153.84 250.304 152.595 249.168 151.372Z" fill="#F9A866"/>
<path opacity="0.9" d="M286.458 116.137C286.011 115.385 285.564 114.633 285.117 113.881C282.485 115.105 279.868 116.355 277.265 117.63C266.855 122.728 256.683 128.228 246.75 134.13C211.983 154.784 177.541 175.985 143.423 197.731C140.986 199.285 138.551 200.841 136.117 202.4C136.564 203.152 137.011 203.904 137.458 204.656C139.991 203.265 142.522 201.87 145.052 200.473C180.467 180.911 215.559 160.802 250.325 140.148C260.259 134.247 269.954 127.944 279.41 121.24C281.774 119.565 284.124 117.864 286.458 116.137Z" fill="url(#paint6_linear_563_5007)"/>
<path d="M344 385H-49V171H18.8408C29.3039 232.875 83.1479 280 148 280C212.852 280 266.696 232.875 277.159 171H344V385Z" fill="white"/>
<path d="M344 385H148V280C220.349 280 279 221.349 279 149C279 76.6507 220.349 18 148 18V-66H344V385Z" fill="white"/>
</g>
<defs>
<filter id="filter0_d_563_5007" x="48.7558" y="45.9758" width="105.677" height="325.187" filterUnits="userSpaceOnUse" color-interpolation-filters="sRGB">
<feFlood flood-opacity="0" result="BackgroundImageFix"/>
<feColorMatrix in="SourceAlpha" type="matrix" values="0 0 0 0 0 0 0 0 0 0 0 0 0 0 0 0 0 0 127 0" result="hardAlpha"/>
<feOffset dy="4"/>
<feGaussianBlur stdDeviation="5.6"/>
<feComposite in2="hardAlpha" operator="out"/>
<feColorMatrix type="matrix" values="0 0 0 0 0 0 0 0 0 0 0 0 0 0 0 0 0 0 0.25 0"/>
<feBlend mode="normal" in2="BackgroundImageFix" result="effect1_dropShadow_563_5007"/>
<feBlend mode="normal" in="SourceGraphic" in2="effect1_dropShadow_563_5007" result="shape"/>
</filter>
<filter id="filter1_d_563_5007" x="73.2803" y="72.3535" width="165.389" height="171.109" filterUnits="userSpaceOnUse" color-interpolation-filters="sRGB">
<feFlood flood-opacity="0" result="BackgroundImageFix"/>
<feColorMatrix in="SourceAlpha" type="matrix" values="0 0 0 0 0 0 0 0 0 0 0 0 0 0 0 0 0 0 127 0" result="hardAlpha"/>
<feOffset dy="4"/>
<feGaussianBlur stdDeviation="2"/>
<feComposite in2="hardAlpha" operator="out"/>
<feColorMatrix type="matrix" values="0 0 0 0 0 0 0 0 0 0 0 0 0 0 0 0 0 0 0.25 0"/>
<feBlend mode="normal" in2="BackgroundImageFix" result="effect1_dropShadow_563_5007"/>
<feBlend mode="normal" in="SourceGraphic" in2="effect1_dropShadow_563_5007" result="shape"/>
</filter>
<filter id="filter2_d_563_5007" x="120.812" y="74.5781" width="64.5526" height="171.037" filterUnits="userSpaceOnUse" color-interpolation-filters="sRGB">
<feFlood flood-opacity="0" result="BackgroundImageFix"/>
<feColorMatrix in="SourceAlpha" type="matrix" values="0 0 0 0 0 0 0 0 0 0 0 0 0 0 0 0 0 0 127 0" result="hardAlpha"/>
<feOffset dy="4"/>
<feGaussianBlur stdDeviation="2"/>
<feComposite in2="hardAlpha" operator="out"/>
<feColorMatrix type="matrix" values="0 0 0 0 0 0 0 0 0 0 0 0 0 0 0 0 0 0 0.25 0"/>
<feBlend mode="normal" in2="BackgroundImageFix" result="effect1_dropShadow_563_5007"/>
<feBlend mode="normal" in="SourceGraphic" in2="effect1_dropShadow_563_5007" result="shape"/>
</filter>
<filter id="filter3_d_563_5007" x="103.697" y="98.4512" width="203.044" height="187.648" filterUnits="userSpaceOnUse" color-interpolation-filters="sRGB">
<feFlood flood-opacity="0" result="BackgroundImageFix"/>
<feColorMatrix in="SourceAlpha" type="matrix" values="0 0 0 0 0 0 0 0 0 0 0 0 0 0 0 0 0 0 127 0" result="hardAlpha"/>
<feOffset dy="4"/>
<feGaussianBlur stdDeviation="2"/>
<feComposite in2="hardAlpha" operator="out"/>
<feColorMatrix type="matrix" values="0 0 0 0 0 0 0 0 0 0 0 0 0 0 0 0 0 0 0.25 0"/>
<feBlend mode="normal" in2="BackgroundImageFix" result="effect1_dropShadow_563_5007"/>
<feBlend mode="normal" in="SourceGraphic" in2="effect1_dropShadow_563_5007" result="shape"/>
</filter>
<linearGradient id="paint0_linear_563_5007" x1="43.0902" y1="147.718" x2="115.024" y2="97.1057" gradientUnits="userSpaceOnUse">
<stop stop-color="#B99376"/>
<stop offset="1" stop-color="#FFB53D"/>
</linearGradient>
<linearGradient id="paint1_linear_563_5007" x1="219" y1="42.5" x2="194" y2="179.5" gradientUnits="userSpaceOnUse">
<stop stop-color="#F56E00"/>
<stop offset="1" stop-color="#F15D38"/>
</linearGradient>
<linearGradient id="paint2_linear_563_5007" x1="86.0491" y1="180.917" x2="172.492" y2="136.23" gradientUnits="userSpaceOnUse">
<stop stop-color="#B99376"/>
<stop offset="1" stop-color="#FFB53D"/>
</linearGradient>
<linearGradient id="paint3_linear_563_5007" x1="94.6733" y1="64.296" x2="208.646" y2="250.847" gradientUnits="userSpaceOnUse">
<stop stop-color="#D8E186"/>
<stop offset="0.173094" stop-color="#57C37D"/>
<stop offset="1" stop-color="#2A5D3C"/>
</linearGradient>
<linearGradient id="paint4_linear_563_5007" x1="114.678" y1="83.7853" x2="199.776" y2="222.215" gradientUnits="userSpaceOnUse">
<stop stop-color="#D8E186"/>
<stop offset="0.173094" stop-color="#57C37D"/>
<stop offset="1" stop-color="#2A5D3C"/>
</linearGradient>
<linearGradient id="paint5_linear_563_5007" x1="186" y1="168.5" x2="203.5" y2="279.5" gradientUnits="userSpaceOnUse">
<stop stop-color="#F56E00"/>
<stop offset="1" stop-color="#FF8D30"/>
</linearGradient>
<linearGradient id="paint6_linear_563_5007" x1="227.158" y1="174.758" x2="210.031" y2="143.322" gradientUnits="userSpaceOnUse">
<stop stop-color="#F9A866"/>
<stop offset="1" stop-color="#F46E00"/>
</linearGradient>
<clipPath id="clip0_563_5007">
<rect width="296" height="280" fill="white"/>
</clipPath>
</defs>
</svg>
