<svg width="240" height="158" viewBox="0 0 240 158" fill="none" xmlns="http://www.w3.org/2000/svg">
<path d="M228.712 81.5597L190.716 142.779C189.751 144.334 188.032 145.24 186.204 145.131C144.298 142.644 71.7078 135.944 95.1318 127.577C117.168 119.705 146.846 63.247 162.007 29.3178C163.625 25.6978 168.643 25.2253 171.042 28.3823C190.565 54.0766 212.841 68.041 226.027 73.7071C229.064 75.0119 230.454 78.7517 228.712 81.5597Z" fill="url(#paint0_linear_622_6424)"/>
<path d="M197.75 46.8856L190.211 118.542C190.02 120.362 188.866 121.926 187.174 122.624C148.368 138.637 80.1061 164.221 97.5476 146.488C113.955 129.805 116.081 66.0565 114.952 28.9112C114.831 24.948 119.142 22.3372 122.677 24.1342C151.442 38.7601 177.576 41.6285 191.914 40.986C195.215 40.8381 198.096 43.5988 197.75 46.8856Z" fill="url(#paint1_linear_622_6424)"/>
<path d="M130.687 53.6071C130.959 53.6113 131.333 53.713 131.58 53.8101C131.661 53.8408 131.606 53.9127 131.661 53.9375C131.77 53.9859 131.882 53.9641 131.991 54.0184C132.026 54.0368 131.96 54.1538 131.998 54.1702C132.205 54.259 132.43 54.2617 132.634 54.3205C133.684 54.6173 134.76 54.8285 135.828 55.0454C136.19 55.1184 136.61 55.2959 136.987 55.3007C137.031 55.3011 137.022 55.188 137.031 55.1802C137.181 55.0611 137.105 55.2757 137.186 55.3174C137.507 55.4826 137.886 55.5481 138.21 55.5517C138.349 55.5532 138.243 55.316 138.364 55.4579C138.372 55.4676 138.32 55.5787 138.356 55.5966C138.438 55.6367 138.603 55.6394 138.668 55.6581C138.794 55.6949 138.816 55.6968 138.938 55.7156C139.104 55.7423 139.298 55.8289 139.475 55.8272C139.513 55.8266 139.48 55.7004 139.543 55.6886C139.606 55.6769 139.763 55.7095 139.813 55.7452C139.863 55.7809 139.827 55.8714 139.833 55.8942C139.886 56.0864 140.106 55.8617 140.131 55.8588C140.582 55.8145 140.939 56.0103 141.342 56.066C141.65 56.1083 141.989 56.107 142.286 56.1544C142.639 56.2112 142.921 56.3155 143.265 56.3509C143.301 56.3548 143.278 56.2089 143.322 56.2133C143.793 56.2606 144.257 56.3385 144.707 56.4949C144.752 56.5107 144.676 56.6258 144.72 56.649C144.991 56.7882 145.414 57.0914 145.655 56.5777C145.847 56.6241 146.076 56.6762 146.235 56.8069C146.337 56.891 146.211 57.0111 146.356 56.9717C146.388 56.963 146.364 56.8402 146.411 56.836C146.612 56.8184 146.82 56.8843 147.022 56.8486C147.063 56.8411 147.066 56.7343 147.08 56.7168C147.194 56.5753 147.317 56.8494 147.349 56.8723C147.59 57.0431 147.784 57.0129 148.024 57.0469C148.08 57.0549 148.032 56.905 148.086 56.9075C148.368 56.9227 148.656 56.9715 148.922 57.0688C148.981 57.0907 148.91 57.2042 148.938 57.2209C149.059 57.293 149.116 57.0688 149.233 57.1333C149.257 57.1466 149.23 57.248 149.233 57.26C149.284 57.4471 149.38 57.203 149.4 57.1998C149.649 57.1536 149.77 57.436 150.007 57.4274C150.035 57.4261 149.989 57.2878 150.068 57.2921C150.594 57.3205 151.14 57.4235 151.643 57.59C151.721 57.6157 151.652 57.707 151.655 57.7197C151.715 57.9187 151.799 57.6718 151.826 57.6654C152.041 57.6214 152.208 57.8569 152.385 57.5718C153.245 57.7803 154.135 57.7118 154.971 58.0805C154.982 58.0849 154.948 58.2076 154.97 58.2158C155.227 58.3158 155.198 58.116 155.399 57.8983C155.45 57.8436 155.552 58.1453 155.562 58.1676C155.597 58.2499 155.531 58.4307 155.544 58.4473C155.651 58.5784 155.7 57.9617 155.861 57.9795C155.866 57.9811 155.832 58.0919 155.845 58.1046C155.883 58.1446 155.93 58.1043 155.967 58.1478C156.051 58.2484 156.052 58.5508 156.216 58.393C156.237 58.3724 156.247 58.0207 156.39 58.0531C156.447 58.0663 156.703 58.0883 156.772 58.1186C156.841 58.149 156.779 58.256 156.784 58.2614C156.96 58.431 156.88 58.4846 156.953 58.715C157.026 58.9446 157.056 58.419 157.101 58.3649C157.147 58.311 157.275 58.4488 157.305 58.4952C157.335 58.5415 157.284 58.6083 157.312 58.6357C157.499 58.8153 157.429 58.3859 157.506 58.3101C157.685 58.1306 157.767 58.5315 157.909 58.5849C157.947 58.5994 157.924 58.5077 157.96 58.5031C158.102 58.4863 158.173 58.6161 158.343 58.5218C158.371 58.5064 158.523 58.2866 158.587 58.4664C158.597 58.4923 158.553 58.5854 158.61 58.6132C158.695 58.6549 158.852 58.6926 158.95 58.6701C159.023 58.6534 158.959 58.4859 159.042 58.5444C159.079 58.5705 158.996 58.6562 159.067 58.6975C159.136 58.7388 159.324 58.7539 159.395 58.7579C159.466 58.7619 159.44 58.6371 159.446 58.6295C159.485 58.5864 159.629 58.5421 159.641 58.5435C160.254 58.5908 160.792 58.8498 161.392 58.8395C161.439 58.8389 161.42 58.7084 161.428 58.707C161.593 58.669 161.434 58.9958 161.535 59.12C161.544 58.8598 161.605 58.9129 161.72 58.8953C161.776 58.8866 161.756 58.7836 161.762 58.7738C161.857 58.6293 161.894 58.8311 161.904 58.8727C161.944 59.0257 162.018 58.8564 162.045 58.9586C162.072 59.0602 161.975 59.1978 162.083 59.2061C162.122 59.1163 162.065 58.8667 162.15 58.8352C162.473 58.716 163.025 58.9584 163.275 59.0007C163.522 59.0429 163.604 59.0328 163.745 59.0791C164 59.1627 163.921 58.9746 164.089 58.9065C164.258 58.8384 164.141 59.2737 164.156 59.3707C164.171 59.4677 164.204 59.3721 164.228 59.4268C164.252 59.4815 164.185 59.5408 164.25 59.5662C164.315 59.5916 164.511 59.4382 164.543 59.3408C164.611 59.1345 164.546 58.9063 164.718 58.9992C164.728 59.0047 164.685 59.1181 164.723 59.1332C165.027 59.2493 165.349 59.2817 165.651 59.386C165.692 59.4005 165.644 59.5269 165.668 59.5368C165.918 59.6404 165.844 59.4147 166.004 59.1836C165.946 59.5037 166.008 59.7073 166.202 59.7246C166.32 59.7351 166.311 59.5927 166.396 59.4994C166.421 59.4713 166.497 59.5746 166.518 59.5095C166.585 59.2968 166.525 59.0482 166.72 59.1604C166.729 59.1657 166.691 59.2821 166.721 59.2917C166.916 59.3539 166.957 59.1291 167.172 59.1178C167.341 59.1088 167.627 59.2689 167.814 59.3049C167.783 59.6675 167.969 59.5974 168.061 59.3524C168.186 59.3716 168.321 59.3668 168.439 59.4097C168.479 59.4244 168.445 59.5276 168.449 59.5393C168.517 59.723 168.588 59.4832 168.615 59.4754C168.911 59.4024 169.133 59.6025 169.418 59.4396C169.428 59.4338 169.458 59.1825 169.522 59.3714C169.526 59.3844 169.426 59.4933 169.557 59.5105C169.688 59.5278 169.928 59.6784 170.116 59.5724C170.161 59.5469 170.284 59.3487 170.363 59.5139C170.373 59.5364 170.356 59.608 170.371 59.6492C170.418 59.7808 170.463 59.5275 170.515 59.7479C170.567 59.9682 170.692 60.1383 170.881 59.9988C170.887 59.9948 170.94 59.795 170.997 59.8013C171.09 59.8117 171.219 59.8609 171.316 59.8647C171.362 59.8664 171.339 59.7393 171.347 59.7375C171.661 59.6834 171.874 59.8063 172.198 59.8703C172.258 59.8823 172.434 59.7188 172.547 59.8595C172.671 60.0135 172.51 60.6244 172.817 60.4903C172.941 60.4367 173.124 59.6606 173.322 60.0742C173.736 59.9895 174.116 60.21 174.541 60.0783C174.56 60.0725 174.625 59.8556 174.669 59.8598C174.734 59.8664 174.767 59.9694 174.813 59.9773C175.008 60.013 175.18 59.9294 175.372 59.9468C175.445 59.9532 175.417 60.0583 175.504 60.0658C175.591 60.0732 175.651 59.9351 175.767 60.0041C175.854 60.0566 175.938 60.3421 176.053 60.3766C176.061 60.0963 176.141 60.1031 176.281 60.0304C176.308 60.0163 176.28 59.9184 176.293 59.9067C176.345 59.8569 176.392 59.9382 176.441 59.8838C176.453 59.8707 176.454 59.775 176.464 59.7589C176.546 59.6185 176.684 59.8345 176.709 59.8721C176.802 60.0149 176.846 59.8904 176.917 59.9466C176.987 60.0028 176.881 60.0728 176.964 60.1069C177.136 60.1774 177.353 60.1612 177.523 60.1643C177.591 60.1649 177.543 60.0375 177.553 60.0346C177.694 60.0011 177.829 60.1355 177.911 59.8797C178.021 60.5365 177.998 59.8148 178.205 59.9429C178.222 59.9533 178.248 60.2642 178.187 60.311C178.125 60.3578 178.028 60.2621 177.942 60.3345C177.921 60.3516 177.805 60.6448 177.792 60.6626C177.672 60.802 177.65 60.3369 177.643 60.3114C177.568 60.0364 177.431 60.3516 177.394 60.3735C177.225 60.4739 177.079 60.4088 176.934 60.4797C176.84 60.5254 176.829 60.8301 176.754 60.8206C176.498 60.7887 176.431 60.3631 176.197 60.7294C176.147 60.8075 176.193 61.1412 176.019 60.8772C176.008 60.8606 175.88 60.6193 175.802 60.7697C175.792 60.7887 175.791 60.8857 175.778 60.8937C175.692 60.9451 175.636 60.8669 175.543 60.9023C175.449 60.9377 175.333 60.9907 175.229 60.9556C175.168 60.9346 175.092 60.7521 175.063 60.7071C174.983 60.5777 174.887 60.7846 174.839 60.6289C174.79 60.4724 174.899 60.2393 174.763 60.1355C174.751 60.3875 174.733 60.646 174.718 60.8993C174.414 60.8825 174.107 60.7916 173.8 60.7922C173.762 60.7926 173.796 60.9294 173.755 60.9332C173.585 60.9489 173.44 60.8468 173.26 60.8784C173.121 60.9034 172.963 61.0407 172.816 61.0707C172.74 60.7787 172.514 60.867 172.362 60.8336C172.309 60.8221 172.316 60.7452 172.279 60.7184C172.139 60.6188 172.195 60.8766 172.153 60.9149C171.975 61.0779 171.988 60.5007 171.785 60.505C171.775 60.5051 171.628 60.8058 171.609 60.824C171.488 60.9429 171.596 60.7161 171.525 60.6897C171.395 60.6414 171.307 60.5632 171.147 60.6449C171.1 60.6691 170.978 60.8546 170.901 60.7017C170.891 60.6817 170.903 60.5805 170.894 60.5741C170.735 60.4658 170.712 60.7846 170.612 60.8873C170.511 60.9899 170.377 60.7612 170.351 60.6959C170.282 60.5272 170.415 60.6293 170.42 60.6134C170.48 60.4245 170.372 60.4513 170.291 60.4303C170.298 60.1168 170.182 60.1288 170.207 60.4097C170.21 60.4404 170.275 60.4151 170.291 60.4303C170.201 60.733 170.072 60.7647 169.95 60.4695C169.892 60.3311 169.964 60.1783 169.761 60.2233C169.669 60.2435 169.691 60.461 169.607 60.5147C169.413 60.637 169.196 60.4213 169.008 60.4407C168.94 60.4477 168.998 60.5699 168.951 60.5788C168.826 60.6026 168.724 60.507 168.598 60.5439C168.586 60.5474 168.605 60.6726 168.567 60.6715C168.275 60.666 168.022 60.5689 167.719 60.5448C167.574 60.5334 167.308 60.5822 167.158 60.5572C166.896 60.5146 166.585 60.3104 166.355 60.3361C166.205 60.3524 166.227 60.4781 166.158 60.5572C166.025 60.7105 165.835 60.4018 165.809 60.3543C165.809 60.3528 165.936 60.3338 165.875 60.2651C165.846 60.1302 165.811 60.3539 165.809 60.3543C165.793 60.3237 165.544 60.2753 165.492 60.2948C165.464 60.3054 165.47 60.4234 165.455 60.4268C165.111 60.5037 164.767 60.5047 164.429 60.4208C164.423 60.4179 164.444 60.2882 164.43 60.283C164.239 60.2081 164.099 60.3569 163.928 60.4374C163.757 60.518 163.63 60.4747 163.553 60.2421C163.428 60.2594 163.26 60.1444 163.163 60.0751C163.067 60.0058 163.029 60.2585 163.02 60.2627C162.723 60.3978 162.58 60.238 162.293 60.1885C162.157 60.1646 161.881 60.1758 161.73 60.1894C161.61 60.2006 161.544 60.1343 161.432 60.1619C161.417 60.1656 161.421 60.2801 161.416 60.284C161.282 60.4076 161.366 60.1368 161.346 60.0851C161.273 59.8969 161.225 59.7958 161.063 59.8653C161.025 59.8812 160.883 60.269 160.816 60.2859C160.729 60.3072 160.775 60.1677 160.683 60.1936C160.675 60.1957 160.668 60.2838 160.614 60.2746C160.362 60.2328 160.091 60.1542 159.826 60.1364C159.789 60.1336 159.822 60.2778 159.769 60.2761C159.522 60.268 159.254 60.2355 159.024 60.1459C158.968 60.1234 159.014 60.0295 159.005 59.9992C158.945 59.8157 158.808 60.0593 158.789 60.0622C158.342 60.1397 158.032 59.874 157.576 59.9365C157.551 59.9404 157.337 60.1938 157.279 59.9506C157.275 59.9344 157.219 59.6859 157.129 59.842C157.123 59.8518 157.161 59.9807 157.073 59.9585C156.985 59.9363 156.833 60.0032 156.725 59.8543C156.691 59.8074 156.625 59.5584 156.489 59.7363C156.48 59.7488 156.254 60.1601 156.222 59.8558C156.218 59.8057 156.263 59.4923 156.107 59.6384C156.077 59.6668 156.117 59.7422 156.043 59.7783C155.929 59.8341 155.797 59.7342 155.651 59.8598C155.625 59.8821 155.504 60.0847 155.444 59.914C155.435 59.8872 155.47 59.7848 155.43 59.7685C155.24 59.6903 155.027 59.7374 154.837 59.6423C154.769 59.6088 154.825 59.4432 154.756 59.3894C154.688 59.3356 154.545 59.2751 154.46 59.3439C154.374 59.4127 154.427 59.6928 154.31 59.7013C153.799 59.7381 153.321 59.522 152.825 59.4402C152.751 59.428 152.801 59.532 152.692 59.521C152.29 59.4811 151.582 59.4885 151.259 59.2409C151 59.0426 151.366 58.9598 151.161 58.867C151.062 58.8226 150.913 59.1233 150.887 59.1302C150.632 59.2012 150.48 59.0413 150.255 59.0571C150.209 59.0604 150.238 59.1932 150.198 59.1946C150.064 59.2005 149.933 59.1267 149.806 59.1216C149.749 59.1196 149.748 59.2181 149.697 59.2042C149.575 59.172 149.471 59.1175 149.361 59.0114C149.351 59.0018 149.441 58.89 149.35 58.8742C149.202 58.8488 149.031 58.7361 148.848 58.8075C148.794 58.829 148.764 59.0509 148.674 58.8838C148.655 58.8489 148.718 58.5858 148.562 58.8003C148.536 58.8359 148.283 59.1198 148.204 58.9062C148.183 58.8499 148.14 58.6228 148.075 58.6493C148.066 58.6538 148.084 58.7773 148.032 58.7825C147.849 58.7989 147.665 58.7625 147.478 58.7766C147.428 58.7806 147.485 58.9133 147.411 58.9153C147.209 58.9211 146.962 58.8574 146.77 58.7934C146.7 58.7696 146.763 58.6738 146.759 58.662C146.698 58.4701 146.617 58.7079 146.587 58.7185C146.401 58.7812 146.284 58.6492 146.119 58.6587C146.074 58.661 146.09 58.7816 146.08 58.7908C145.976 58.8804 146.071 58.6801 146.016 58.6495C145.863 58.5631 145.682 58.549 145.518 58.5425C145.457 58.5402 145.507 58.6841 145.453 58.6805C145.127 58.6614 144.795 58.6043 144.494 58.4884C144.437 58.4664 144.488 58.3673 144.479 58.342C144.417 58.1647 144.263 58.3748 144.232 58.3926C144.09 58.4739 144.053 58.3753 143.937 58.3772C143.367 58.3877 142.681 58.2327 142.167 58.1238C141.478 57.9799 140.971 57.8088 140.31 57.7421C140.268 57.7377 140.29 57.8818 140.254 57.8798C139.781 57.8474 139.342 57.7301 138.872 57.7037C138.833 57.7012 138.87 57.84 138.807 57.8405C138.677 57.8423 138.518 57.8123 138.397 57.7522C138.338 57.7232 138.437 57.6228 138.378 57.5959C138.239 57.5329 138.085 57.5013 137.935 57.501C137.871 57.5012 137.946 57.6487 137.864 57.6385C137.316 57.5727 136.739 57.512 136.212 57.2573C136.175 57.2397 136.182 56.9629 136.093 57.0031C136.076 57.0776 136.063 57.1664 136.049 57.2467C135.213 57.1676 134.429 56.9535 133.617 56.8148C133.583 56.809 133.62 56.962 133.554 56.9515C133.18 56.8923 132.777 56.8711 132.414 56.6683C132.377 56.6483 132.436 56.3982 132.317 56.4189C132.295 56.4226 132.124 56.4306 132.067 56.478C132.059 56.4853 132.073 56.6085 132.015 56.603C131.678 56.5688 131.341 56.4882 131.036 56.3659C130.987 56.3459 131.061 56.2288 131.026 56.2135C130.774 56.1051 130.458 56.1526 130.228 55.9986C130.074 55.8949 130.171 55.6875 130.117 55.4594C130.11 55.4272 130.009 55.406 130.024 55.2807C130.061 54.9656 130.165 54.6308 130.199 54.2939C130.206 54.2214 130.059 54.277 130.167 54.1163C130.174 54.1055 130.281 54.0637 130.315 54.0087C130.339 53.9707 130.329 53.8392 130.372 53.7926C130.415 53.7461 130.435 53.8584 130.503 53.8064C130.571 53.7537 130.568 53.6055 130.687 53.6071ZM162.73 59.7648C162.648 59.6342 162.593 60.0797 162.704 59.9821C162.709 59.9769 162.734 59.7712 162.73 59.7648ZM174.122 60.4531C174.003 60.2514 173.907 60.5392 173.991 60.6949C174.075 60.8504 174.158 60.5143 174.122 60.4531ZM175.404 60.3414C175.26 60.1825 175.223 60.8181 175.385 60.6926C175.394 60.6855 175.412 60.3506 175.404 60.3414ZM130.539 55.4647C130.539 55.4586 130.464 55.4408 130.462 55.4464C130.399 55.5806 130.548 55.6161 130.539 55.4647ZM176.674 60.1994C176.627 60.1131 176.5 60.2117 176.554 60.319C176.595 60.4054 176.732 60.3067 176.674 60.1994ZM157.889 58.8031C157.889 58.7963 157.835 58.7846 157.832 58.8223C157.823 58.9437 157.902 58.9176 157.889 58.8031ZM178.833 60.167C178.519 60.1522 178.316 59.6307 178.658 59.6816C178.72 59.6907 178.53 59.8526 178.609 59.8979C178.756 59.9805 178.84 59.6479 178.989 59.8199C179.017 59.8514 178.851 60.1691 178.833 60.1678C178.833 60.1675 178.833 60.1673 178.833 60.167ZM162.725 59.2232C162.724 59.2172 162.65 59.2047 162.647 59.2104C162.594 59.3484 162.744 59.3737 162.725 59.2232ZM154.757 58.1797C154.754 58.1666 154.582 58.1351 154.575 58.146C154.457 58.3671 154.807 58.4316 154.757 58.1797ZM167.816 59.3148C167.906 59.1777 168.008 59.1681 168.061 59.3522C167.979 59.3369 167.895 59.3294 167.816 59.3148Z" fill="#A9A9A9"/>
<path opacity="0.5" d="M130.223 63.9315L130.781 62.5392L130.609 62.4702L130.426 62.4452L130.223 63.9315ZM132.829 64.8577L132.555 66.3324L132.829 64.8577ZM133.935 65.0632L133.661 66.5379L133.935 65.0632ZM135.057 65.1567L135.033 63.6569L135.057 65.1567ZM135.627 65.1475L135.602 63.6477L135.627 65.1475ZM138.544 64.5701L138.094 63.1391L138.544 64.5701ZM139.669 64.6491L140.338 63.3067L139.669 64.6491ZM140.201 64.9144L139.532 66.2568L140.201 64.9144ZM143 65.1811L142.774 63.6982L143 65.1811ZM144.66 65.5186L144.111 66.9145L144.66 65.5186ZM146.279 66.1892L146.902 64.825L146.279 66.1892ZM147.352 66.6796L146.728 68.0439L147.352 66.6796ZM148.478 66.7328L148.013 65.3065L148.478 66.7328ZM149.657 66.3486L150.121 67.7748L149.657 66.3486ZM150.806 66.2156L150.648 67.7073L150.806 66.2156ZM153.052 66.3745L153.003 64.8753L153.052 66.3745ZM156.334 67.4065L155.484 68.6421L156.334 67.4065ZM157.41 67.93L156.988 69.3694L157.41 67.93ZM157.96 68.091L158.382 66.6515L157.96 68.091ZM159.641 68.2485L160.049 69.692L159.641 68.2485ZM160.805 67.9194L160.398 66.476L160.805 67.9194ZM162.483 68.1421L161.983 69.5563L162.483 68.1421ZM164.154 68.4082L163.845 66.9403L164.154 68.4082ZM165.306 68.1659L165.614 69.6338L165.306 68.1659ZM166.432 68.2125L165.995 69.6474L166.432 68.2125ZM166.983 68.3801L167.42 66.9451L166.983 68.3801ZM169.221 68.6315L169.111 67.1355L169.221 68.6315ZM170.923 68.5056L171.034 70.0015L170.923 68.5056ZM171.488 68.4636L171.599 69.9595L171.488 68.4636ZM172.053 68.4217L171.942 66.9258L172.053 68.4217ZM173.184 68.3261L173.325 69.8195L173.184 68.3261ZM174.315 68.219L174.174 66.7257L174.315 68.219ZM175.994 68.4335L175.643 69.8918L175.994 68.4335ZM176.551 68.5676L176.902 67.1093L176.551 68.5676ZM178.533 68.7388L178.493 70.2383L178.533 68.7388ZM179.008 68.7879L177.508 68.7839L179.008 68.7879ZM179.007 68.8245L179.851 70.065L180.505 69.62L180.507 68.8285L179.007 68.8245ZM178.907 68.8925L178.064 67.6521L174.381 70.1565L178.829 70.3905L178.907 68.8925ZM130.124 63.918L129.922 65.4042L130.021 65.4177L130.223 63.9315L130.426 62.4452L130.327 62.4317L130.124 63.918ZM130.223 63.9315L129.665 65.3237L130.691 65.7354L131.25 64.3432L131.808 62.951L130.781 62.5392L130.223 63.9315ZM131.25 64.3432L130.691 65.7354C131.398 66.0186 132.036 66.2359 132.555 66.3324L132.829 64.8577L133.103 63.3829C132.885 63.3424 132.471 63.2167 131.808 62.951L131.25 64.3432ZM132.829 64.8577L132.555 66.3324L133.108 66.4351L133.382 64.9604L133.656 63.4857L133.103 63.3829L132.829 64.8577ZM133.382 64.9604L133.108 66.4351L133.661 66.5379L133.935 65.0632L134.209 63.5884L133.656 63.4857L133.382 64.9604ZM133.935 65.0632L133.661 66.5379C134.129 66.6249 134.603 66.6642 135.081 66.6565L135.057 65.1567L135.033 63.6569C134.752 63.6614 134.478 63.6384 134.209 63.5884L133.935 65.0632ZM135.057 65.1567L135.081 66.6565L135.651 66.6473L135.627 65.1475L135.602 63.6477L135.033 63.6569L135.057 65.1567ZM135.627 65.1475L135.651 66.6473L136.22 66.6381L136.196 65.1383L136.172 63.6385L135.602 63.6477L135.627 65.1475ZM136.196 65.1383L136.22 66.6381C136.757 66.6295 137.288 66.5374 137.808 66.3738L137.358 64.9428L136.909 63.5118C136.639 63.5967 136.395 63.6349 136.172 63.6385L136.196 65.1383ZM137.358 64.9428L137.808 66.3738L138.401 66.1874L137.951 64.7564L137.501 63.3255L136.909 63.5118L137.358 64.9428ZM137.951 64.7564L138.401 66.1874L138.994 66.001L138.544 64.5701L138.094 63.1391L137.501 63.3255L137.951 64.7564ZM138.544 64.5701L138.994 66.001C139.013 65.9949 139.024 65.9934 139.026 65.9932C139.028 65.9929 139.024 65.9935 139.017 65.993C139.009 65.9924 139.002 65.9911 138.997 65.9897C138.992 65.9883 138.993 65.9879 139 65.9915L139.669 64.6491L140.338 63.3067C139.619 62.9481 138.841 62.9042 138.094 63.1391L138.544 64.5701ZM139.669 64.6491L139 65.9915L139.532 66.2568L140.201 64.9144L140.871 63.572L140.338 63.3067L139.669 64.6491ZM140.201 64.9144L139.532 66.2568L140.064 66.5222L140.733 65.1798L141.403 63.8374L140.871 63.572L140.201 64.9144ZM140.733 65.1798L140.064 66.5222C140.691 66.8346 141.373 66.9461 142.07 66.8401L141.844 65.3571L141.618 63.8742C141.544 63.8855 141.486 63.8788 141.403 63.8374L140.733 65.1798ZM141.844 65.3571L142.07 66.8401L142.648 66.7521L142.422 65.2691L142.196 63.7862L141.618 63.8742L141.844 65.3571ZM142.422 65.2691L142.648 66.7521L143.226 66.6641L143 65.1811L142.774 63.6982L142.196 63.7862L142.422 65.2691ZM143 65.1811L143.226 66.6641C143.352 66.6449 143.457 66.6574 143.57 66.7018L144.119 65.3059L144.668 63.9099C144.06 63.6707 143.42 63.6 142.774 63.6982L143 65.1811ZM144.119 65.3059L143.57 66.7018L144.111 66.9145L144.66 65.5186L145.209 64.1226L144.668 63.9099L144.119 65.3059ZM144.66 65.5186L144.111 66.9145L144.652 67.1273L145.201 65.7313L145.75 64.3353L145.209 64.1226L144.66 65.5186ZM145.201 65.7313L144.652 67.1273C144.987 67.259 145.322 67.4011 145.655 67.5535L146.279 66.1892L146.902 64.825C146.52 64.6504 146.136 64.4872 145.75 64.3353L145.201 65.7313ZM146.279 66.1892L145.655 67.5535L146.191 67.7987L146.815 66.4344L147.439 65.0702L146.902 64.825L146.279 66.1892ZM146.815 66.4344L146.191 67.7987L146.728 68.0439L147.352 66.6796L147.975 65.3154L147.439 65.0702L146.815 66.4344ZM147.352 66.6796L146.728 68.0439C147.447 68.3723 148.212 68.397 148.942 68.159L148.478 66.7328L148.013 65.3065C147.991 65.3136 147.978 65.3159 147.973 65.3167C147.968 65.3174 147.968 65.317 147.972 65.3172C147.976 65.3174 147.98 65.3181 147.983 65.3187C147.986 65.3194 147.983 65.3191 147.975 65.3154L147.352 66.6796ZM148.478 66.7328L148.942 68.159L149.532 67.9669L149.067 66.5407L148.602 65.1145L148.013 65.3065L148.478 66.7328ZM149.067 66.5407L149.532 67.9669L150.121 67.7748L149.657 66.3486L149.192 64.9224L148.602 65.1145L149.067 66.5407ZM149.657 66.3486L150.121 67.7748C150.335 67.7054 150.505 67.6922 150.648 67.7073L150.806 66.2156L150.963 64.7239C150.36 64.6602 149.765 64.7357 149.192 64.9224L149.657 66.3486ZM150.806 66.2156L150.648 67.7073L151.208 67.7664L151.365 66.2747L151.523 64.7831L150.963 64.7239L150.806 66.2156ZM151.365 66.2747L151.208 67.7664L151.767 67.8256L151.925 66.3339L152.082 64.8422L151.523 64.7831L151.365 66.2747ZM151.925 66.3339L151.767 67.8256C152.209 67.8723 152.654 67.8883 153.1 67.8738L153.052 66.3745L153.003 64.8753C152.693 64.8854 152.386 64.8743 152.082 64.8422L151.925 66.3339ZM153.052 66.3745L153.1 67.8738L153.668 67.8553L153.619 66.3561L153.571 64.8569L153.003 64.8753L153.052 66.3745ZM153.619 66.3561L153.668 67.8553L154.236 67.8369L154.187 66.3377L154.138 64.8385L153.571 64.8569L153.619 66.3561ZM154.187 66.3377L154.236 67.8369C154.254 67.8363 154.309 67.8334 154.431 67.9172L155.281 66.6817L156.132 65.4461C155.551 65.0467 154.877 64.8145 154.138 64.8385L154.187 66.3377ZM155.281 66.6817L154.431 67.9172L154.957 68.2796L155.808 67.0441L156.658 65.8085L156.132 65.4461L155.281 66.6817ZM155.808 67.0441L154.957 68.2796L155.484 68.6421L156.334 67.4065L157.185 66.1709L156.658 65.8085L155.808 67.0441ZM156.334 67.4065L155.484 68.6421C155.951 68.9636 156.453 69.2124 156.988 69.3694L157.41 67.93L157.832 66.4905C157.635 66.4328 157.42 66.3327 157.185 66.1709L156.334 67.4065ZM157.41 67.93L156.988 69.3694L157.538 69.5305L157.96 68.091L158.382 66.6515L157.832 66.4905L157.41 67.93ZM157.96 68.091L157.538 69.5305L158.087 69.6915L158.509 68.252L158.931 66.8126L158.382 66.6515L157.96 68.091ZM158.509 68.252L158.087 69.6915C158.74 69.8828 159.405 69.8739 160.049 69.692L159.641 68.2485L159.233 66.8051C159.1 66.8426 159.011 66.836 158.931 66.8126L158.509 68.252ZM159.641 68.2485L160.049 69.692L160.631 69.5274L160.223 68.084L159.815 66.6405L159.233 66.8051L159.641 68.2485ZM160.223 68.084L160.631 69.5274L161.213 69.3629L160.805 67.9194L160.398 66.476L159.815 66.6405L160.223 68.084ZM160.805 67.9194L161.213 69.3629C161.316 69.3338 161.375 69.3415 161.435 69.3627L161.935 67.9485L162.435 66.5343C161.765 66.2974 161.071 66.2857 160.398 66.476L160.805 67.9194ZM161.935 67.9485L161.435 69.3627L161.983 69.5563L162.483 68.1421L162.983 66.7279L162.435 66.5343L161.935 67.9485ZM162.483 68.1421L161.983 69.5563L162.531 69.7499L163.031 68.3357L163.53 66.9214L162.983 66.7279L162.483 68.1421ZM163.031 68.3357L162.531 69.7499C163.159 69.972 163.813 70.0127 164.463 69.876L164.154 68.4082L163.845 66.9403C163.727 66.9651 163.632 66.9575 163.53 66.9214L163.031 68.3357ZM164.154 68.4082L164.463 69.876L165.039 69.7549L164.73 68.287L164.421 66.8192L163.845 66.9403L164.154 68.4082ZM164.73 68.287L165.039 69.7549L165.614 69.6338L165.306 68.1659L164.997 66.698L164.421 66.8192L164.73 68.287ZM165.306 68.1659L165.614 69.6338C165.757 69.6039 165.875 69.611 165.995 69.6474L166.432 68.2125L166.869 66.7775C166.255 66.5904 165.622 66.5665 164.997 66.698L165.306 68.1659ZM166.432 68.2125L165.995 69.6474L166.546 69.8151L166.983 68.3801L167.42 66.9451L166.869 66.7775L166.432 68.2125ZM166.983 68.3801L166.546 69.8151L167.097 69.9827L167.533 68.5478L167.97 67.1128L167.42 66.9451L166.983 68.3801ZM167.533 68.5478L167.097 69.9827C167.639 70.1479 168.197 70.2111 168.763 70.1694L168.653 68.6734L168.542 67.1775C168.35 67.1917 168.162 67.1712 167.97 67.1128L167.533 68.5478ZM168.653 68.6734L168.763 70.1694L169.331 70.1274L169.221 68.6315L169.111 67.1355L168.542 67.1775L168.653 68.6734ZM169.221 68.6315L169.331 70.1274L169.9 70.0854L169.789 68.5895L169.679 67.0936L169.111 67.1355L169.221 68.6315ZM169.789 68.5895L169.9 70.0854C170.279 70.0574 170.657 70.0294 171.034 70.0015L170.923 68.5056L170.812 67.0097C170.435 67.0376 170.058 67.0656 169.679 67.0936L169.789 68.5895ZM170.923 68.5056L171.034 70.0015L171.599 69.9595L171.488 68.4636L171.377 66.9677L170.812 67.0097L170.923 68.5056ZM171.488 68.4636L171.599 69.9595L172.164 69.9175L172.053 68.4217L171.942 66.9258L171.377 66.9677L171.488 68.4636ZM172.053 68.4217L172.164 69.9175C172.551 69.8888 172.938 69.8561 173.325 69.8195L173.184 68.3261L173.042 66.8328C172.675 66.8676 172.309 66.8986 171.942 66.9258L172.053 68.4217ZM173.184 68.3261L173.325 69.8195L173.891 69.7659L173.75 68.2726L173.608 66.7792L173.042 66.8328L173.184 68.3261ZM173.75 68.2726L173.891 69.7659L174.457 69.7123L174.315 68.219L174.174 66.7257L173.608 66.7792L173.75 68.2726ZM174.315 68.219L174.457 69.7123C174.668 69.6923 174.875 69.7069 175.086 69.7578L175.438 68.2995L175.789 66.8412C175.258 66.7133 174.717 66.6742 174.174 66.7257L174.315 68.219ZM175.438 68.2995L175.086 69.7578L175.643 69.8918L175.994 68.4335L176.345 66.9752L175.789 66.8412L175.438 68.2995ZM175.994 68.4335L175.643 69.8918L176.2 70.0259L176.551 68.5676L176.902 67.1093L176.345 66.9752L175.994 68.4335ZM176.551 68.5676L176.2 70.0259C176.653 70.135 177.103 70.202 177.543 70.2135L177.582 68.714L177.622 67.2145C177.429 67.2095 177.191 67.1788 176.902 67.1093L176.551 68.5676ZM177.582 68.714L177.543 70.2135L178.018 70.2259L178.058 68.7264L178.097 67.2269L177.622 67.2145L177.582 68.714ZM178.058 68.7264L178.018 70.2259L178.493 70.2383L178.533 68.7388L178.572 67.2393L178.097 67.2269L178.058 68.7264ZM178.533 68.7388L178.493 70.2383C178.643 70.2422 178.715 70.2473 178.735 70.2494C178.756 70.2515 178.695 70.2473 178.604 70.2236C178.57 70.215 178.427 70.1785 178.261 70.084C178.176 70.0361 178.013 69.9335 177.859 69.75C177.691 69.5508 177.506 69.2204 177.508 68.7839L179.008 68.7879L180.508 68.7919C180.51 67.906 179.815 67.5167 179.74 67.4741C179.563 67.3741 179.406 67.3323 179.352 67.3185C179.221 67.2847 179.101 67.2712 179.043 67.2652C178.904 67.2509 178.739 67.2437 178.572 67.2393L178.533 68.7388ZM179.008 68.7879L177.508 68.7839L177.507 68.8205L179.007 68.8245L180.507 68.8285L180.508 68.7919L179.008 68.7879ZM179.007 68.8245L178.164 67.5841L178.064 67.6521L178.907 68.8925L179.751 70.133L179.851 70.065L179.007 68.8245ZM178.907 68.8925L178.829 70.3905L178.928 70.3957L179.007 68.8978L179.086 67.3999L178.986 67.3946L178.907 68.8925Z" fill="#A9A9A9"/>
<path opacity="0.4" d="M128.097 79.185L128.722 77.8215L128.544 77.7401L128.352 77.7069L128.097 79.185ZM130.655 80.232L130.321 81.6942L130.655 80.232ZM133.447 80.6331L133.417 82.1328L133.447 80.6331ZM135.782 80.3202L135.376 78.8762L135.782 80.3202ZM136.38 80.1523L135.974 78.7083L136.38 80.1523ZM137.502 80.2634L138.206 78.939L137.502 80.2634ZM138.552 80.8217L137.848 82.1461L138.552 80.8217ZM140.817 80.8728L140.622 79.3856L140.817 80.8728ZM141.933 81.0175L141.362 82.4047L141.933 81.0175ZM143.006 81.4588L142.435 82.846L143.006 81.4588ZM144.077 81.9295L143.443 83.2886L144.077 81.9295ZM144.613 82.1795L145.247 80.8205L144.613 82.1795ZM145.148 82.4296L144.513 83.7887L145.148 82.4296ZM146.864 82.2974L146.402 80.8704L146.864 82.2974ZM150.844 82.1085L150.918 83.6067L150.844 82.1085ZM153.079 82.3724L153.894 81.1134L153.079 82.3724ZM154.151 83.0671L153.336 84.326L154.151 83.0671ZM155.246 83.5518L155.604 82.0952L155.246 83.5518ZM156.364 83.8265L156.006 85.2831L156.364 83.8265ZM157.496 83.7633L157 82.3475L157.496 83.7633ZM158.069 83.5627L158.564 84.9785L158.069 83.5627ZM159.78 83.3054L159.41 84.759L159.78 83.3054ZM160.91 83.593L160.54 85.0466L160.91 83.593ZM162.033 83.5421L161.539 82.1258L162.033 83.5421ZM162.591 83.3474L162.097 81.9311L162.591 83.3474ZM163.15 83.1527L163.643 84.5691L163.15 83.1527ZM164.04 83.0489L163.645 84.4959L164.04 83.0489ZM164.706 83.2306L165.101 81.7836L164.706 83.2306ZM165.028 83.2318L163.539 83.4108L165.028 83.2318ZM165.017 83.1421L166.506 82.9631L166.463 82.6044L166.262 82.3047L165.017 83.1421ZM164.896 82.9614L164.915 81.4616L162.054 81.4248L163.651 83.7988L164.896 82.9614ZM127.998 79.168L127.743 80.6461L127.841 80.6631L128.097 79.185L128.352 77.7069L128.253 77.6899L127.998 79.168ZM128.097 79.185L127.471 80.5484L128.475 81.0089L129.101 79.6455L129.726 78.282L128.722 77.8215L128.097 79.185ZM129.101 79.6455L128.475 81.0089C129.167 81.3263 129.799 81.5748 130.321 81.6942L130.655 80.232L130.99 78.7698C130.778 78.7212 130.373 78.5786 129.726 78.282L129.101 79.6455ZM130.655 80.232L130.321 81.6942L130.871 81.8202L131.206 80.358L131.541 78.8959L130.99 78.7698L130.655 80.232ZM131.206 80.358L130.871 81.8202L131.422 81.9463L131.756 80.4841L132.091 79.0219L131.541 78.8959L131.206 80.358ZM131.756 80.4841L131.422 81.9463C131.89 82.0534 132.365 82.1116 132.847 82.1213L132.877 80.6216L132.907 79.1219C132.629 79.1163 132.357 79.0829 132.091 79.0219L131.756 80.4841ZM132.877 80.6216L132.847 82.1213L133.417 82.1328L133.447 80.6331L133.477 79.1335L132.907 79.1219L132.877 80.6216ZM133.447 80.6331L133.417 82.1328L133.987 82.1443L134.017 80.6447L134.048 79.145L133.477 79.1335L133.447 80.6331ZM134.017 80.6447L133.987 82.1443C134.527 82.1552 135.063 82.0806 135.591 81.9322L135.185 80.4882L134.779 79.0442C134.51 79.1198 134.268 79.1494 134.048 79.145L134.017 80.6447ZM135.185 80.4882L135.591 81.9322L136.188 81.7643L135.782 80.3202L135.376 78.8762L134.779 79.0442L135.185 80.4882ZM135.782 80.3202L136.188 81.7643L136.786 81.5963L136.38 80.1523L135.974 78.7083L135.376 78.8762L135.782 80.3202ZM136.38 80.1523L136.786 81.5963C136.805 81.5908 136.816 81.5895 136.819 81.5892C136.821 81.589 136.818 81.5895 136.811 81.5888C136.804 81.5881 136.798 81.5867 136.794 81.5853C136.789 81.584 136.791 81.5839 136.798 81.5879L137.502 80.2634L138.206 78.939C137.499 78.5631 136.726 78.4969 135.974 78.7083L136.38 80.1523ZM137.502 80.2634L136.798 81.5879L137.323 81.867L138.027 80.5426L138.731 79.2181L138.206 78.939L137.502 80.2634ZM138.027 80.5426L137.323 81.867L137.848 82.1461L138.552 80.8217L139.256 79.4972L138.731 79.2181L138.027 80.5426ZM138.552 80.8217L137.848 82.1461C138.469 82.476 139.151 82.604 139.852 82.5121L139.657 81.0248L139.462 79.5375C139.391 79.5469 139.336 79.5395 139.256 79.4972L138.552 80.8217ZM139.657 81.0248L139.852 82.5121L140.432 82.4361L140.237 80.9488L140.042 79.4615L139.462 79.5375L139.657 81.0248ZM140.237 80.9488L140.432 82.4361L141.012 82.3601L140.817 80.8728L140.622 79.3856L140.042 79.4615L140.237 80.9488ZM140.817 80.8728L141.012 82.3601C141.141 82.3432 141.249 82.3581 141.362 82.4047L141.933 81.0175L142.504 79.6303C141.902 79.3828 141.266 79.3012 140.622 79.3856L140.817 80.8728ZM141.933 81.0175L141.362 82.4047L141.899 82.6254L142.469 81.2382L143.04 79.851L142.504 79.6303L141.933 81.0175ZM142.469 81.2382L141.899 82.6254L142.435 82.846L143.006 81.4588L143.576 80.0716L143.04 79.851L142.469 81.2382ZM143.006 81.4588L142.435 82.846C142.77 82.9841 143.106 83.1316 143.443 83.2886L144.077 81.9295L144.712 80.5704C144.334 80.3941 143.956 80.2278 143.576 80.0716L143.006 81.4588ZM144.077 81.9295L143.443 83.2886L143.978 83.5386L144.613 82.1795L145.247 80.8205L144.712 80.5704L144.077 81.9295ZM144.613 82.1795L143.978 83.5386L144.513 83.7887L145.148 82.4296L145.783 81.0705L145.247 80.8205L144.613 82.1795ZM145.148 82.4296L144.513 83.7887C145.232 84.1245 146.001 84.1535 146.736 83.9156L146.274 82.4885L145.811 81.0615C145.791 81.0683 145.778 81.0704 145.774 81.071C145.769 81.0716 145.771 81.0711 145.776 81.0714C145.781 81.0717 145.786 81.0725 145.789 81.0734C145.792 81.0742 145.791 81.0741 145.783 81.0705L145.148 82.4296ZM146.274 82.4885L146.736 83.9156L147.326 83.7245L146.864 82.2974L146.402 80.8704L145.811 81.0615L146.274 82.4885ZM146.864 82.2974L147.326 83.7245L147.916 83.5334L147.454 82.1063L146.992 80.6793L146.402 80.8704L146.864 82.2974ZM147.454 82.1063L147.916 83.5334C148.134 83.4629 148.309 83.4488 148.455 83.4632L148.603 81.9705L148.75 80.4778C148.152 80.4186 147.561 80.495 146.992 80.6793L147.454 82.1063ZM148.603 81.9705L148.455 83.4632L149.013 83.5185L149.161 82.0258L149.309 80.5331L148.75 80.4778L148.603 81.9705ZM149.161 82.0258L149.013 83.5185L149.572 83.5738L149.72 82.0811L149.867 80.5884L149.309 80.5331L149.161 82.0258ZM149.72 82.0811L149.572 83.5738C150.019 83.618 150.467 83.6289 150.918 83.6067L150.844 82.1085L150.771 80.6103C150.466 80.6253 150.165 80.6179 149.867 80.5884L149.72 82.0811ZM150.844 82.1085L150.918 83.6067L151.484 83.5789L151.41 82.0807L151.337 80.5825L150.771 80.6103L150.844 82.1085ZM151.41 82.0807L151.484 83.5789L152.05 83.551L151.976 82.0528L151.903 80.5547L151.337 80.5825L151.41 82.0807ZM151.976 82.0528L152.05 83.551C152.074 83.5499 152.135 83.548 152.263 83.6313L153.079 82.3724L153.894 81.1134C153.308 80.7336 152.634 80.5187 151.903 80.5547L151.976 82.0528ZM153.079 82.3724L152.263 83.6313L152.799 83.9787L153.615 82.7197L154.43 81.4608L153.894 81.1134L153.079 82.3724ZM153.615 82.7197L152.799 83.9787L153.336 84.326L154.151 83.0671L154.967 81.8082L154.43 81.4608L153.615 82.7197ZM154.151 83.0671L153.336 84.326C153.818 84.6386 154.336 84.8728 154.888 85.0085L155.246 83.5518L155.604 82.0952C155.411 82.0477 155.199 81.9588 154.967 81.8082L154.151 83.0671ZM155.246 83.5518L154.888 85.0085L155.447 85.1458L155.805 83.6892L156.163 82.2325L155.604 82.0952L155.246 83.5518ZM155.805 83.6892L155.447 85.1458L156.006 85.2831L156.364 83.8265L156.722 82.3699L156.163 82.2325L155.805 83.6892ZM156.364 83.8265L156.006 85.2831C156.677 85.4481 157.35 85.4033 157.991 85.1791L157.496 83.7633L157 82.3475C156.877 82.3907 156.796 82.3881 156.722 82.3699L156.364 83.8265ZM157.496 83.7633L157.991 85.1791L158.564 84.9785L158.069 83.5627L157.573 82.1469L157 82.3475L157.496 83.7633ZM158.069 83.5627L158.564 84.9785L159.138 84.7779L158.642 83.3621L158.147 81.9463L157.573 82.1469L158.069 83.5627ZM158.642 83.3621L159.138 84.7779C159.253 84.7374 159.332 84.7391 159.41 84.759L159.78 83.3054L160.15 81.8517C159.475 81.6799 158.795 81.7194 158.147 81.9463L158.642 83.3621ZM159.78 83.3054L159.41 84.759L159.975 84.9028L160.345 83.4492L160.715 81.9955L160.15 81.8517L159.78 83.3054ZM160.345 83.4492L159.975 84.9028L160.54 85.0466L160.91 83.593L161.28 82.1394L160.715 81.9955L160.345 83.4492ZM160.91 83.593L160.54 85.0466C161.206 85.2163 161.881 85.1838 162.527 84.9585L162.033 83.5421L161.539 82.1258C161.441 82.1601 161.367 82.1615 161.28 82.1394L160.91 83.593ZM162.033 83.5421L162.527 84.9585L163.085 84.7638L162.591 83.3474L162.097 81.9311L161.539 82.1258L162.033 83.5421ZM162.591 83.3474L163.085 84.7638L163.643 84.5691L163.15 83.1527L162.656 81.7364L162.097 81.9311L162.591 83.3474ZM163.15 83.1527L163.643 84.5691C163.698 84.5501 163.741 84.5377 163.772 84.5299C163.804 84.5221 163.821 84.5198 163.825 84.5194C163.829 84.5189 163.814 84.5209 163.785 84.5195C163.755 84.518 163.707 84.5128 163.645 84.4959L164.04 83.0489L164.436 81.6019C163.778 81.4224 163.132 81.5702 162.656 81.7364L163.15 83.1527ZM164.04 83.0489L163.645 84.4959L163.978 84.5868L164.373 83.1398L164.768 81.6927L164.436 81.6019L164.04 83.0489ZM164.373 83.1398L163.978 84.5868L164.311 84.6777L164.706 83.2306L165.101 81.7836L164.768 81.6927L164.373 83.1398ZM164.706 83.2306L164.311 84.6777C164.438 84.7125 164.683 84.7754 164.947 84.7763C165.051 84.7767 165.407 84.7749 165.777 84.5554C165.993 84.4272 166.226 84.2161 166.378 83.8995C166.528 83.5865 166.545 83.2824 166.517 83.0527L165.028 83.2318L163.539 83.4108C163.513 83.1961 163.528 82.905 163.672 82.6033C163.819 82.2978 164.043 82.096 164.246 81.9753C164.591 81.7707 164.908 81.7762 164.958 81.7763C165.116 81.7769 165.195 81.8094 165.101 81.7836L164.706 83.2306ZM165.028 83.2318L166.517 83.0527L166.506 82.9631L165.017 83.1421L163.528 83.3211L163.539 83.4108L165.028 83.2318ZM165.017 83.1421L166.262 82.3047L166.14 82.1241L164.896 82.9614L163.651 83.7988L163.773 83.9795L165.017 83.1421ZM164.896 82.9614L164.876 84.4613L164.976 84.4626L164.996 82.9627L165.015 81.4628L164.915 81.4616L164.896 82.9614Z" fill="#A9A9A9"/>
<path d="M56.4808 135.079L75.0844 101.56C76.3523 99.2757 75.6477 96.4003 73.4672 94.9609L63.7044 88.5162C61.7225 87.2078 59.0937 87.4741 57.4144 89.1534L16.7924 129.774C13.6071 132.96 15.9277 138.402 20.4314 138.309L52.2125 137.651C53.9916 137.614 55.6172 136.635 56.4808 135.079Z" fill="url(#paint2_linear_622_6424)"/>
<ellipse cx="40" cy="42.5" rx="40" ry="42.5" transform="matrix(-0.973697 -0.227845 -0.227845 0.973697 133.43 26.7188)" fill="#68574E"/>
<ellipse cx="40" cy="42.5" rx="40" ry="42.5" transform="matrix(-0.973697 -0.227845 -0.227845 0.973697 138.652 26.2539)" fill="#806F66"/>
<ellipse cx="31.8456" cy="34.5398" rx="31.8456" ry="34.5398" transform="matrix(-0.936273 -0.351273 -0.351273 0.936273 135.957 37.7656)" fill="url(#paint3_linear_622_6424)"/>
<path d="M95.2695 85.3629C117.735 84.3287 122.446 66.3482 121.994 57.4871C120.461 46.6111 112.202 48.5575 108.265 50.8902C103.731 53.8979 104.194 64.0606 104.993 68.766C103.78 78.3227 98.0054 83.8126 95.2695 85.3629Z" fill="url(#paint4_linear_622_6424)"/>
<path d="M89.9489 85.9419C93.307 85.9012 96.0996 82.3803 97.0762 80.625C95.8091 81.5702 82.8624 82.1921 76.5475 82.3848C81.0087 85.9572 87.3406 86.2447 89.9489 85.9419Z" fill="url(#paint5_linear_622_6424)"/>
<path d="M32.0157 49.4902C32.2126 48.3922 33.7874 48.3922 33.9843 49.4902L35.0056 55.1866C35.0794 55.5983 35.4017 55.9206 35.8134 55.9944L41.5098 57.0157C42.6078 57.2126 42.6078 58.7874 41.5098 58.9843L35.8134 60.0056C35.4017 60.0794 35.0794 60.4017 35.0056 60.8134L33.9843 66.5098C33.7874 67.6078 32.2126 67.6078 32.0157 66.5098L30.9944 60.8134C30.9206 60.4017 30.5983 60.0794 30.1866 60.0056L24.4902 58.9843C23.3922 58.7874 23.3922 57.2126 24.4902 57.0157L30.1866 55.9944C30.5983 55.9206 30.9206 55.5983 30.9944 55.1866L32.0157 49.4902Z" fill="#FFF4A5"/>
<path d="M18.0157 30.4902C18.2126 29.3922 19.7874 29.3922 19.9843 30.4902L21.7657 40.4264C21.8395 40.8382 22.1618 41.1605 22.5736 41.2343L32.5098 43.0157C33.6078 43.2126 33.6078 44.7874 32.5098 44.9843L22.5736 46.7657C22.1618 46.8395 21.8395 47.1618 21.7657 47.5736L19.9843 57.5098C19.7874 58.6078 18.2126 58.6078 18.0157 57.5098L16.2343 47.5736C16.1605 47.1618 15.8382 46.8395 15.4264 46.7657L5.4902 44.9843C4.39216 44.7874 4.39216 43.2126 5.4902 43.0157L15.4264 41.2343C15.8382 41.1605 16.1605 40.8382 16.2343 40.4264L18.0157 30.4902Z" fill="#FFC480"/>
<defs>
<linearGradient id="paint0_linear_622_6424" x1="188.485" y1="124.999" x2="89.1351" y2="153.778" gradientUnits="userSpaceOnUse">
<stop stop-color="#DADCE3"/>
<stop offset="1" stop-color="#C2D6DC"/>
</linearGradient>
<linearGradient id="paint1_linear_622_6424" x1="180.458" y1="103.508" x2="103.561" y2="172.685" gradientUnits="userSpaceOnUse">
<stop stop-color="#F0F2F7"/>
<stop offset="1" stop-color="#C2D6DC"/>
</linearGradient>
<linearGradient id="paint2_linear_622_6424" x1="44.0645" y1="85.5691" x2="41.7191" y2="140.019" gradientUnits="userSpaceOnUse">
<stop stop-color="#806F66"/>
<stop offset="1" stop-color="#C28C70"/>
</linearGradient>
<linearGradient id="paint3_linear_622_6424" x1="31.8456" y1="0" x2="31.8456" y2="69.0795" gradientUnits="userSpaceOnUse">
<stop stop-color="#E0E9FF"/>
<stop offset="1" stop-color="#AEC0ED"/>
</linearGradient>
<linearGradient id="paint4_linear_622_6424" x1="118.913" y1="73.2803" x2="89.6507" y2="55.5046" gradientUnits="userSpaceOnUse">
<stop stop-color="white"/>
<stop offset="1" stop-color="white" stop-opacity="0.2"/>
</linearGradient>
<linearGradient id="paint5_linear_622_6424" x1="87.1189" y1="79.4171" x2="86.1035" y2="85.973" gradientUnits="userSpaceOnUse">
<stop stop-color="white" stop-opacity="0.28"/>
<stop offset="1" stop-color="white"/>
</linearGradient>
</defs>
</svg>
