<svg width="13" height="13" viewBox="0 0 13 13" fill="none" xmlns="http://www.w3.org/2000/svg">
<path d="M12.5394 2.92416L11.0227 1.4075C10.9721 1.35787 10.904 1.33008 10.8331 1.33008C10.7623 1.33008 10.6942 1.35787 10.6436 1.4075L4.2519 7.79916C4.20127 7.84879 4.13321 7.87658 4.06232 7.87658C3.99142 7.87658 3.92336 7.84879 3.87273 7.79916L2.35607 6.2825C2.30544 6.23287 2.23737 6.20508 2.16648 6.20508C2.09559 6.20508 2.02753 6.23287 1.9769 6.2825L0.460232 7.79916C0.410608 7.84979 0.382813 7.91786 0.382812 7.98875C0.382813 8.05964 0.410608 8.12771 0.460232 8.17833L3.87273 11.5908C3.92336 11.6405 3.99142 11.6683 4.06232 11.6683C4.13321 11.6683 4.20127 11.6405 4.2519 11.5908L12.5394 3.30333C12.589 3.2527 12.6168 3.18464 12.6168 3.11375C12.6168 3.04286 12.589 2.97479 12.5394 2.92416Z" fill="#F56E00"/>
</svg>
